<svg width="100" height="100" viewBox="0 0 100 100" fill="none" xmlns="http://www.w3.org/2000/svg">
<g clip-path="url(#clip0_514_156945)">
<rect width="100" height="100" rx="50" fill="#F1EAFD"/>
<path d="M52.4847 77.2541C51.3984 77.3378 50.3065 77.2014 49.2742 76.8531C48.242 76.5048 47.2905 75.9518 46.4769 75.2273C45.6633 74.5027 45.0042 73.6214 44.5391 72.6361C44.074 71.6508 43.8125 70.5819 43.7701 69.4931C43.6006 65.0863 43.449 60.626 43.449 60.626C43.449 60.626 36.7592 60.0015 36.3132 53.3913C35.8672 46.7811 36.0278 31.5088 36.0278 31.5088C39.6902 29.6644 43.7781 28.8301 47.8703 29.092C51.9624 29.3539 55.9107 30.7024 59.3082 32.9986L60.334 33.6944L59.9861 69.2701C59.9646 71.2993 59.1816 73.2463 57.7921 74.7251C56.4027 76.2039 54.5083 77.1066 52.4847 77.2541V77.2541Z" fill="#B78876"/>
<path d="M39.1409 43.1494C39.2753 43.0145 39.3667 42.8428 39.4036 42.656C39.4405 42.4692 39.4212 42.2757 39.3482 42.0998C39.2752 41.924 39.1517 41.7737 38.9934 41.668C38.835 41.5623 38.6489 41.5059 38.4585 41.5059C38.2682 41.5059 38.082 41.5623 37.9237 41.668C37.7653 41.7737 37.6419 41.924 37.5689 42.0998C37.4958 42.2757 37.4766 42.4692 37.5135 42.656C37.5504 42.8428 37.6418 43.0145 37.7762 43.1494C37.9581 43.3286 38.2032 43.4291 38.4585 43.4291C38.7139 43.4291 38.959 43.3286 39.1409 43.1494V43.1494Z" fill="#263238"/>
<path d="M36.5639 42.0343C36.6709 42.1414 37.2864 41.5972 38.2051 41.5437C39.1238 41.4902 39.8017 41.9094 39.8999 41.7845C39.998 41.6597 39.8285 41.5348 39.5252 41.3296C39.1206 41.068 38.6404 40.9488 38.1605 40.9906C37.6805 41.0256 37.2241 41.2131 36.8582 41.5258C36.5906 41.7667 36.5104 41.9808 36.5639 42.0343Z" fill="#263238"/>
<path d="M47.7734 41.9194C47.6183 42.0297 47.4994 42.1834 47.4315 42.3612C47.3637 42.539 47.3501 42.7329 47.3923 42.9184C47.4345 43.104 47.5307 43.2728 47.6688 43.4038C47.8069 43.5347 47.9806 43.6218 48.1681 43.6541C48.3556 43.6864 48.5485 43.6624 48.7224 43.5852C48.8963 43.508 49.0435 43.381 49.1453 43.2203C49.2472 43.0596 49.2991 42.8723 49.2947 42.682C49.2902 42.4918 49.2295 42.3071 49.1203 42.1513C48.97 41.9451 48.7453 41.8056 48.4938 41.7623C48.2424 41.719 47.984 41.7753 47.7734 41.9194V41.9194Z" fill="#263238"/>
<path d="M46.5008 42.2391C46.6167 42.3462 47.2322 41.802 48.142 41.7396C49.0518 41.6771 49.7475 42.1142 49.8367 41.9893C49.9259 41.8645 49.7654 41.7307 49.471 41.5344C49.0627 41.2764 48.5824 41.1563 48.1007 41.1916C47.6191 41.2269 47.1614 41.4159 46.7951 41.7306C46.5364 41.9715 46.4472 42.1856 46.5008 42.2391Z" fill="#263238"/>
<path d="M43.2523 49.3147C42.769 49.1567 42.2619 49.0842 41.7538 49.1006C41.5219 49.1006 41.3256 49.0471 41.2989 48.9132C41.2809 48.6764 41.3271 48.4391 41.4327 48.2264C41.6289 47.6019 41.8251 46.9775 42.0392 46.3263C42.6218 44.7157 43.0431 43.0513 43.2969 41.3574C42.5425 42.8994 41.9448 44.5132 41.5129 46.1746C41.3167 46.8347 41.1294 47.4592 40.951 48.0836C40.8126 48.3984 40.7874 48.7514 40.8796 49.0827C40.9201 49.1702 40.9796 49.2476 41.0536 49.3093C41.1276 49.371 41.2145 49.4155 41.3078 49.4396C41.4441 49.4553 41.5818 49.4553 41.7181 49.4396C42.2329 49.4872 42.752 49.4449 43.2523 49.3147Z" fill="#263238"/>
<path d="M46.2956 50.1445C45.7515 50.3854 43.7624 51.6967 41.9071 51.7146C42.2444 52.1753 42.7284 52.5075 43.2796 52.6567C43.8307 52.8058 44.4162 52.763 44.9398 52.5353C46.8754 51.7324 46.2956 50.1445 46.2956 50.1445Z" fill="white"/>
<path d="M43.4228 60.5264C46.4811 60.3998 49.4319 59.3623 51.8965 57.5469C51.8965 57.5469 50.1125 62.4354 43.5119 62.2481L43.4228 60.5264Z" fill="#A36957"/>
<path d="M59.9333 41.8663C59.9308 41.6082 60.0292 41.3593 60.2075 41.1727C60.3857 40.9861 60.6298 40.8765 60.8877 40.8672C62.1186 40.8672 64.1434 41.3221 64.3307 44.7298C64.5983 49.5916 59.9244 48.3784 59.8709 48.2446C59.8174 48.1108 59.9155 43.7575 59.9333 41.8663Z" fill="#B78876"/>
<path d="M60.9776 46.3247C60.9776 46.3247 61.0668 46.3783 61.2095 46.4407C61.4135 46.5182 61.6388 46.5182 61.8428 46.4407C62.151 46.2273 62.3963 45.9351 62.5531 45.5947C62.71 45.2542 62.7727 44.8779 62.7348 44.5049C62.7204 44.0883 62.6138 43.68 62.4226 43.3096C62.3697 43.1602 62.2811 43.0261 62.1645 42.9188C62.0479 42.8115 61.9068 42.7343 61.7536 42.694C61.6544 42.6719 61.5506 42.6858 61.4608 42.7332C61.3709 42.7806 61.3008 42.8584 61.263 42.9527C61.2095 43.0865 61.263 43.1847 61.263 43.1936C61.263 43.2025 61.156 43.1222 61.1828 42.917C61.2027 42.7969 61.2624 42.687 61.3522 42.6048C61.4157 42.5501 61.4893 42.5086 61.5689 42.4825C61.6486 42.4565 61.7325 42.4465 61.816 42.4532C62.0121 42.4858 62.1967 42.5675 62.3527 42.6908C62.5087 42.814 62.6309 42.9747 62.708 43.1579C62.9385 43.5674 63.067 44.0264 63.0826 44.496C63.1299 44.9279 63.0484 45.3641 62.8484 45.7498C62.6484 46.1355 62.3389 46.4535 61.9588 46.6637C61.8305 46.7115 61.693 46.729 61.5569 46.7151C61.4208 46.7012 61.2897 46.6561 61.1738 46.5834C60.9954 46.4407 60.9598 46.3783 60.9776 46.3247Z" fill="#A36957"/>
<path d="M37.3925 29.7594C42.8207 27.7805 48.7031 27.4028 54.3399 28.6711C54.3399 28.6711 59.9861 30.6426 60.2804 33.6845C60.435 36.1719 60.4111 38.6671 60.2091 41.1511H59.8523L59.7988 46.2448H57.7472L57.4618 39.3581C57.4618 39.3581 53.5639 36.6819 53.4836 32.4802C51.5837 32.2304 42.2715 31.1332 35.9207 33.3009V31.8201C35.9294 31.3682 36.0746 30.9295 36.3373 30.5617C36.6 30.1939 36.9678 29.9142 37.3925 29.7594Z" fill="#263238"/>
<path d="M47.275 39.0471C47.275 39.1809 47.9351 39.1898 48.6843 39.3682C49.4336 39.5467 50.0133 39.8053 50.0936 39.6983C50.1739 39.5913 49.6387 39.1095 48.7914 38.9133C47.944 38.717 47.2482 38.9222 47.275 39.0471Z" fill="#263238"/>
<path d="M37.4388 37.6004C37.519 37.7075 37.9472 37.529 38.4823 37.6004C39.0175 37.6718 39.3743 37.9572 39.4814 37.8769C39.5884 37.7967 39.2762 37.2436 38.5894 37.1365C37.9026 37.0295 37.3496 37.5112 37.4388 37.6004Z" fill="#263238"/>
<path d="M60.4136 35.6745C60.7347 32.24 60.1817 29.5906 58.7367 27.9045C57.8816 27.0261 56.8129 26.385 55.6355 26.0441C54.458 25.7032 53.2122 25.6741 52.0201 25.9598C51.2774 26.3268 50.4835 26.5794 49.6653 26.7092C48.3185 26.7092 47.3105 25.5762 46.2937 24.6931C45.5151 23.9067 44.4567 23.4608 43.3502 23.4531C43.08 23.4651 42.815 23.5321 42.5716 23.65C42.3281 23.7679 42.1112 23.9342 41.9343 24.1388C41.7573 24.3434 41.6238 24.5819 41.5422 24.8398C41.4605 25.0977 41.4323 25.3695 41.4592 25.6387C40.5487 25.2246 39.5745 24.9682 38.5781 24.8804C38.0808 24.8424 37.5813 24.9182 37.1176 25.1022C36.6539 25.2861 36.2383 25.5733 35.9022 25.942C35.5895 26.3222 35.4252 26.803 35.44 27.2952C35.4547 27.7873 35.6475 28.2574 35.9825 28.6182C35.6028 28.3142 35.1309 28.1485 34.6446 28.1485C34.1582 28.1485 33.6863 28.3142 33.3066 28.6182C32.9442 28.9489 32.6905 29.3816 32.5791 29.8594C32.4676 30.3372 32.5036 30.8375 32.6822 31.2944C32.8787 31.7488 33.1917 32.1431 33.5895 32.4376C33.9874 32.7321 34.4559 32.9163 34.9478 32.9715C35.4371 33.015 35.9299 32.9513 36.392 32.7849C36.8541 32.6185 37.2745 32.3534 37.6237 32.0081L40.4602 30.8305L54.1163 31.6156L60.4136 35.6745Z" fill="#263238"/>
<path d="M53.7244 34.0773C53.6706 33.5743 53.428 33.1105 53.0456 32.7793C52.6632 32.4482 52.1694 32.2745 51.664 32.2932C50.6429 32.3694 49.6791 32.7946 48.9345 33.4975C48.206 34.2008 47.4081 34.8285 46.553 35.3708C45.543 35.8923 44.3947 36.0826 43.2705 35.915C42.1511 35.7472 41.0857 35.3228 40.1575 34.675C39.1173 35.2459 37.9618 35.5752 36.777 35.6384C35.9786 35.7265 35.1745 35.5341 34.5024 35.0943C33.8865 34.5632 33.4814 33.8289 33.3607 33.0247C33.1918 32.3836 33.2166 31.7069 33.4321 31.08C33.7058 30.4789 34.1784 29.9906 34.77 29.6972C35.3557 29.4087 35.9721 29.1873 36.6075 29.0371L52.8503 29.4385L55.2051 32.7927L53.7244 34.0773Z" fill="#263238"/>
<path d="M-36.1761 48.5294C-34.856 48.0476 -32.0641 55.1396 -31.7787 53.2662C-31.4933 51.3929 -36.2385 44.9968 -34.8114 44.5507C-33.0275 43.9709 -30.1999 51.4464 -29.9145 52.053C-29.6291 52.6596 -28.7282 52.285 -29.0225 51.7408C-29.4328 50.9647 -33.5448 42.6774 -31.7609 42.0886C-30.7708 41.7675 -30.3426 43.5962 -30.3426 43.5962C-30.3426 43.5962 -27.078 51.6248 -26.2485 51.3215C-25.419 51.0182 -27.1404 46.2278 -27.8719 44.6578C-28.6033 43.0877 -28.1127 42.1421 -27.1672 42.4098C-26.525 42.5882 -24.2416 47.3429 -23.5993 48.9129C-22.9571 50.483 -21.191 54.8184 -20.3169 51.9817C-19.4427 49.1449 -17.6856 47.2983 -16.8649 47.1199C-16.6613 47.0636 -16.4443 47.0813 -16.2526 47.1701C-16.0608 47.2588 -15.9068 47.4127 -15.8179 47.6044C-15.729 47.7961 -15.7111 48.0131 -15.7673 48.2168C-15.8234 48.4205 -15.9501 48.5976 -16.1246 48.7167C-16.7218 49.537 -17.1993 50.4381 -17.5428 51.3929C-17.851 52.136 -18.0291 52.9266 -18.0691 53.7301C-18.1793 55.3456 -18.1315 56.9679 -17.9264 58.574L-1.21086 87.7626L24.8704 77.5394L28.6523 92.4638C28.6523 92.4638 -5.5726 108.048 -7.74009 106.906C-12.6281 104.328 -28.4249 61.7677 -28.4249 61.7677C-30.7289 58.8935 -32.8729 55.8945 -34.8471 52.7845C-37.0235 48.9129 -36.6667 48.7078 -36.1761 48.5294Z" fill="#B78876"/>
<path d="M9.05625 82.8657C16.2901 79.1457 21.41 76.9334 25.3615 74.391C37.6439 66.5051 40.8818 68.2536 43.7718 67.8967C46.1979 68.6372 49.7926 70.0556 51.1484 70.3053C52.638 70.5819 57.4903 68.878 60.7014 67.8789C68.1761 68.2001 72.7608 71.3758 79.6647 76.4606L90.957 85.9611L76.6855 100.341L71.9045 97.8613C71.1018 104.347 71.298 106.871 71.0126 114.686L71.6548 146.104L25.1742 148.736L27.7163 118.638L28.8402 94.971L15.6033 101.599L9.06517 82.8657" fill="#FF8A8A"/>
<path d="M61.041 68.7616V63.9355C61.041 63.9355 52.7457 64.8276 51.0599 70.5815L61.041 68.7616Z" fill="#FF8A8A"/>
<path d="M43.7692 67.8963L44.0814 63.9355C45.7992 64.1585 47.4014 64.9229 48.6556 66.1179C49.9098 67.3129 50.7508 68.8763 51.0566 70.5815L43.7692 67.8963Z" fill="#FF8A8A"/>
<path d="M42.7801 85.7286C42.2487 85.6508 41.7116 85.618 41.1746 85.6305C40.1131 85.6305 38.5611 85.5502 36.7147 85.5234H36.5185V85.7286C36.5185 87.5127 36.5185 89.6716 36.5185 91.9731V92.098L36.6255 92.1604L37.0715 92.4727L39.462 94.1141L39.5869 94.1944L39.7117 94.1141C40.8713 93.3647 41.9684 92.66 42.9585 92.0088L43.0566 91.9552V91.8482C43.0566 89.9749 42.9853 88.4227 42.9496 87.3879C42.9621 86.8508 42.9293 86.3137 42.8515 85.7821C42.8515 85.7821 42.798 86.4423 42.7623 87.5127C42.7266 88.5832 42.682 90.073 42.6553 91.8661L42.7534 91.6966L39.4709 93.7572H39.685L37.2945 92.1069L36.8485 91.8036L36.9466 91.9909C36.9466 89.7251 36.9466 87.6109 36.9466 85.7465L36.7504 85.9427C38.5343 85.9427 40.0507 85.8713 41.1211 85.8357C42.1914 85.8 42.7534 85.7554 42.7801 85.7286Z" fill="#263238"/>
<path d="M36.8319 87.2442C37.8308 87.4581 38.856 87.5213 39.8736 87.4315C40.8926 87.4945 41.9154 87.4012 42.9062 87.155C41.9075 86.9405 40.8822 86.8773 39.8646 86.9676C38.8455 86.8993 37.8219 86.9927 36.8319 87.2442V87.2442Z" fill="#263238"/>
<path d="M52.5379 67.6914C52.4309 67.7717 54.0097 69.6004 55.3387 72.3659L55.4636 72.6245L55.6866 72.4461L56.2396 72.009C57.9107 70.7846 59.4852 69.4336 60.9492 67.9679C59.1944 69.0661 57.5247 70.2947 55.9542 71.6433L55.4012 72.0893L55.749 72.1607C55.1713 70.9826 54.4685 69.87 53.6529 68.8422C53.3518 68.396 52.9744 68.0064 52.5379 67.6914V67.6914Z" fill="#263238"/>
<path d="M43.822 68.0754C44.6835 69.2632 45.667 70.3575 46.7566 71.3403L46.8636 71.4385L47.0598 71.6347L47.2204 71.4117C48.0856 70.2888 48.83 69.0778 49.4414 67.7988C48.4571 68.8184 47.584 69.9398 46.8369 71.1441H47.1936L47.0866 71.037C46.1107 69.9327 45.0158 68.9395 43.822 68.0754V68.0754Z" fill="#263238"/>
<path d="M50.3193 96.0775C50.4442 96.0775 50.6939 90.4843 50.8812 83.5886C51.0686 76.6929 51.1042 71.0996 50.9794 71.0996C50.8545 71.0996 50.5958 76.6929 50.4174 83.5886C50.239 90.4843 50.1855 96.0686 50.3193 96.0775Z" fill="#263238"/>
<path d="M67.1676 70.2871C67.0316 70.2663 66.8933 70.2663 66.7573 70.2871C66.3661 70.2721 65.9743 70.2991 65.5888 70.3674C64.1611 70.6104 62.8227 71.2258 61.7087 72.1515C60.0106 73.5297 58.8466 75.4574 58.4174 77.6021C57.9042 80.2043 58.216 82.9019 59.3093 85.3185C60.4179 87.7085 62.02 89.8366 64.01 91.5629C65.6108 92.9575 67.3469 94.1888 69.1924 95.2383C70.7623 96.1303 72.0645 96.8083 72.9654 97.2543C73.4239 97.5048 73.9011 97.7196 74.3926 97.8966C73.9678 97.5952 73.5205 97.3268 73.0546 97.0938C72.1627 96.5942 70.8961 95.8984 69.3619 94.9617C67.562 93.8806 65.866 92.6353 64.2955 91.2418C62.3703 89.5536 60.8154 87.4853 59.7286 85.1668C58.6807 82.8355 58.3695 80.2399 58.8366 77.727C59.2241 75.6758 60.2965 73.8169 61.8782 72.4548C62.9388 71.5328 64.2101 70.8864 65.5799 70.5726C66.6057 70.3049 67.1676 70.3406 67.1676 70.2871Z" fill="#263238"/>
<path d="M29.0521 96.4244C29.2966 95.8874 29.4561 95.3156 29.5249 94.7295C29.7952 93.3353 29.9828 91.9264 30.0868 90.51C30.1958 89.0943 30.2197 87.6734 30.1582 86.2548C30.1732 85.6529 30.1011 85.052 29.9441 84.4707C29.8014 84.4707 29.8727 87.1469 29.623 90.4386C29.3732 93.7304 28.9183 96.3977 29.0521 96.4244Z" fill="#263238"/>
<path d="M42.094 96.6749L130.781 111.295L121.687 166.474L32.9998 151.854L42.094 96.6749Z" fill="#FF725E"/>
<g opacity="0.6">
<path d="M42.094 96.6749L130.781 111.295L121.687 166.474L32.9997 151.854L42.094 96.6749Z" fill="#D44D5C"/>
</g>
<path d="M38.5979 97.8233L127.285 112.443L118.191 167.623L29.5036 153.003L38.5979 97.8233Z" fill="#FF725E"/>
<g opacity="0.4">
<path d="M38.5999 97.8233L127.287 112.443L118.193 167.623L29.5056 153.003L38.5999 97.8233Z" fill="#D44D5C"/>
</g>
<path d="M35.469 99.4952L124.156 114.115L115.062 169.294L26.3747 154.674L35.469 99.4952Z" fill="#FF725E"/>
<path d="M124.172 114.123C124.076 114.144 123.983 114.177 123.895 114.221L123.128 114.56L120.167 115.916L109.312 120.965L73.5793 137.781L71.4475 138.789L71.724 138.842L46.0976 110.894L38.3553 102.526L36.2414 100.269L35.6794 99.6893C35.6172 99.6204 35.5485 99.5577 35.4743 99.502C35.5248 99.5806 35.5815 99.6552 35.6437 99.725L36.17 100.332L38.2215 102.642L45.8657 111.117L71.385 139.154L71.501 139.288L71.6615 139.208L73.7934 138.2L109.472 121.251L120.256 116.068L123.182 114.64L123.94 114.257L124.172 114.123Z" fill="#263238"/>
<path d="M90.7943 156.995C91.7058 156.579 92.5553 156.039 93.3186 155.39C93.9556 154.892 94.5019 154.289 94.933 153.605C95.5881 152.591 96.1837 151.54 96.717 150.456C96.717 150.456 96.1194 121.5 95.0579 116.718C93.9965 111.937 77.3255 100.019 77.3255 100.019L88.5554 88.4844C96.3031 94.1738 103.08 101.078 108.625 108.931C113.977 116.772 108.152 153.222 108.152 153.249C108.646 156.366 108.967 159.508 109.115 162.66C109.115 167.12 108.75 167.12 108.223 167.004C106.841 166.772 107.884 159.225 106.716 160.76C105.547 162.294 106.52 170.135 105.084 169.841C103.211 169.449 104.441 161.572 104.495 160.92C104.548 160.269 103.603 160.144 103.603 160.76C103.603 161.652 103.095 170.867 101.257 170.51C100.231 170.305 100.767 168.503 100.767 168.503C100.767 168.503 101.855 159.903 100.981 159.761C100.106 159.618 99.2769 164.64 99.1253 166.362C98.9737 168.084 98.1085 168.672 97.4127 167.977C96.94 167.513 97.2789 162.241 97.4752 160.555C97.6714 158.869 98.269 154.221 96.1104 156.264C93.9519 158.307 91.5257 159.065 90.7586 158.806C90.6397 158.804 90.5225 158.778 90.4135 158.73C90.3046 158.683 90.2061 158.614 90.1237 158.528C90.0412 158.443 89.9765 158.341 89.9332 158.231C89.8899 158.12 89.8688 158.002 89.8711 157.883C89.8735 157.764 89.8992 157.647 89.9468 157.538C89.9945 157.429 90.0632 157.33 90.1489 157.248C90.2346 157.165 90.3357 157.101 90.4465 157.057C90.5572 157.014 90.6754 156.993 90.7943 156.995V156.995Z" fill="#B78876"/>
</g>
<defs>
<clipPath id="clip0_514_156945">
<rect width="100" height="100" rx="50" fill="white"/>
</clipPath>
</defs>
</svg>
