<svg width="101" height="100" viewBox="0 0 101 100" fill="none" xmlns="http://www.w3.org/2000/svg">
<g clip-path="url(#clip0_514_157350)">
<rect x="0.333984" width="100" height="100" rx="50" fill="#F1EAFD"/>
<path d="M79.7398 52.8753C82.1627 53.2197 84.2892 54.6528 86.1436 56.2502C92.517 61.7274 97.0435 69.4086 100.712 76.9504C101.915 79.4414 102.7 82.0414 102.435 84.7927C102.148 87.8031 100.104 90.4219 97.6076 92.1309C95.1115 93.8399 92.173 94.7951 89.3044 95.7063L63.7696 62.1067C65.4191 58.7027 76.4322 52.403 79.7398 52.8753Z" fill="#E0E0E0"/>
<path d="M79.7422 52.8734C79.7422 52.8734 79.6302 52.8573 79.4097 52.8378C79.0828 52.8375 78.7566 52.8685 78.4356 52.9304C77.2002 53.1858 75.9981 53.5819 74.8527 54.1108C73.0349 54.9133 71.2787 55.8487 69.5985 56.9095C68.5435 57.5624 67.5251 58.2729 66.5481 59.0376C66.0145 59.4572 65.5038 59.9052 65.0182 60.3797C64.4963 60.8758 64.052 61.4478 63.7005 62.0763L63.6852 62.1072L63.7043 62.1402C70.1598 70.6454 78.9604 82.2082 88.6135 94.9486C88.8193 95.2225 89.0295 95.4975 89.2242 95.7521L89.2528 95.8017L89.3023 95.773C91.2426 95.1967 93.1434 94.4952 94.9929 93.673C95.8938 93.2549 96.7605 92.7668 97.5851 92.2131C98.3933 91.6607 99.1398 91.023 99.8118 90.311C100.47 89.6086 101.037 88.8253 101.497 87.9799C101.942 87.1442 102.252 86.2432 102.415 85.3105C102.66 83.4963 102.498 81.6504 101.941 79.9065C101.695 79.0738 101.393 78.2584 101.038 77.4659C100.674 76.6819 100.291 75.9231 99.9183 75.1765C99.1689 73.675 98.3965 72.2419 97.628 70.8726C96.205 68.3265 94.6228 65.8727 92.8909 63.5259C91.4646 61.5884 89.8893 59.7652 88.1793 58.0729C86.9075 56.7772 85.5125 55.6086 84.0141 54.5835C83.0631 53.9402 82.0193 53.4463 80.9189 53.1189C80.7275 53.063 80.5598 53.0203 80.4157 52.991C80.2685 52.9586 80.1473 52.9331 80.0483 52.9205C79.8471 52.8899 79.7454 52.8789 79.7454 52.8789L80.0437 52.9379C80.1667 52.9576 80.2885 52.984 80.4087 53.0171C80.5543 53.0468 80.7208 53.0937 80.908 53.1509C81.9982 53.4904 83.0308 53.993 83.9706 54.6417C85.4601 55.6715 86.8474 56.8418 88.1133 58.1367C89.8145 59.8287 91.3816 61.6505 92.8005 63.5854C94.5231 65.9321 96.0961 68.385 97.5104 70.9295C98.2761 72.3004 99.0442 73.7324 99.7893 75.2327C100.163 75.982 100.546 76.7408 100.906 77.5237C101.271 78.3141 101.58 79.1286 101.833 79.9614C102.382 81.683 102.542 83.5052 102.3 85.296C102.14 86.2118 101.834 87.0959 101.394 87.9149C100.938 88.7473 100.38 89.5194 99.7333 90.2132C99.0639 90.9181 98.3214 91.5498 97.5183 92.0975C96.7003 92.6455 95.841 93.1294 94.9482 93.5447C93.1064 94.3609 91.2138 95.0576 89.2824 95.6304L89.3724 95.6592C89.1804 95.403 88.9719 95.1307 88.7617 94.8557L63.8211 62.0691L63.8249 62.133C64.1696 61.5148 64.6058 60.9524 65.1188 60.4648C65.5992 59.992 66.1042 59.5448 66.6317 59.1252C67.6016 58.3573 68.6131 57.6435 69.6615 56.9869C71.3322 55.9196 73.0794 54.9771 74.8889 54.1671C76.0243 53.6352 77.2155 53.2318 78.4405 52.9643C78.7598 52.9005 79.0839 52.8643 79.4094 52.8563L79.7422 52.8734Z" fill="#263238"/>
<path d="M75.8281 59.3575C75.8281 59.3575 75.8456 59.3877 75.8994 59.4301L76.1183 59.6376C76.3218 59.8248 76.6068 60.0896 76.9729 60.4251L77.5908 60.9932C77.813 61.2063 78.0489 61.437 78.3043 61.6823C78.8116 62.1858 79.4073 62.741 80.0292 63.3986C80.3405 63.7217 80.6673 64.0652 80.991 64.4288C81.3147 64.7924 81.6609 65.176 82.0147 65.5663C82.7337 66.3476 83.4445 67.2291 84.2043 68.1447C85.8182 70.1613 87.329 72.2583 88.7308 74.4276C90.203 76.7486 91.4684 79.0421 92.536 81.1709C93.0506 82.2465 93.5514 83.2602 93.9453 84.2475C94.1525 84.7335 94.3682 85.1962 94.5481 85.6538C94.7279 86.1115 94.9037 86.5495 95.0684 86.9683C95.4131 87.8005 95.6661 88.5756 95.9088 89.2503C96.0307 89.5885 96.1421 89.9022 96.243 90.1914L96.4946 90.9894C96.6496 91.4614 96.7672 91.8302 96.8527 92.0928L96.9498 92.3817C96.9624 92.4134 96.9795 92.4431 97.0006 92.4698C97.0006 92.4698 96.9832 92.4395 96.9762 92.3702L96.896 92.0788C96.8187 91.8115 96.713 91.4504 96.5686 90.965C96.4969 90.7201 96.4153 90.4516 96.328 90.1607C96.2408 89.8697 96.1203 89.5466 96.0092 89.2143C95.772 88.5365 95.5328 87.7535 95.188 86.9212L94.6787 85.6004C94.5016 85.1412 94.2871 84.6742 94.0811 84.1839C93.6789 83.2013 93.1792 82.1832 92.6702 81.1045C91.5215 78.7841 90.2518 76.5256 88.8664 74.3383C87.462 72.1591 85.9455 70.0542 84.3229 68.0322C83.556 67.1171 82.8397 66.2388 82.1085 65.4681C81.7531 65.0751 81.4179 64.6851 81.0832 64.3278C80.7484 63.9706 80.4107 63.6334 80.0994 63.3104C79.4803 62.6512 78.8762 62.1008 78.3745 61.5941C78.1148 61.3476 77.8744 61.1157 77.65 60.9113C77.4256 60.7069 77.2095 60.5234 77.0215 60.3567C76.6487 60.0287 76.3542 59.773 76.1469 59.5918L75.9173 59.3977C75.8514 59.366 75.8308 59.3559 75.8281 59.3575Z" fill="#263238"/>
<path d="M85.2599 61.5413C85.2599 61.5413 85.2434 61.5508 85.2131 61.5683L85.0921 61.6638C84.9349 61.7926 84.7853 61.9304 84.6442 62.0766C84.1248 62.6449 83.6593 63.2601 83.2537 63.9144L83.2262 63.9303L83.2437 63.9605C86.1532 67.075 88.7548 70.4634 91.0121 74.0787L91.0534 74.1502L91.1222 74.1105L93.7749 72.5203L95.721 71.3526L95.7898 71.3129L95.7734 71.2526C95.7313 71.0971 95.6888 70.9345 95.6499 70.7844C94.6269 68.4895 93.3481 66.3173 91.838 64.3092C91.1721 63.4165 90.5232 62.6167 89.9176 61.8983C89.2712 61.2109 88.6443 60.659 88.1067 60.1729L88.0988 60.1592C87.9711 60.1633 87.8453 60.1912 87.7278 60.2412C87.6148 60.2808 87.5062 60.3215 87.4063 60.3645C87.1993 60.4509 87.0109 60.5377 86.824 60.6272C86.4767 60.7948 86.1888 60.9573 85.9592 61.0935C85.7836 61.1972 85.6136 61.3101 85.4498 61.4316L85.3277 61.5315C85.2974 61.549 85.2836 61.557 85.2836 61.557L85.4653 61.4521C85.5836 61.3837 85.7503 61.2655 85.9831 61.1348C86.2159 61.0041 86.5057 60.8514 86.8562 60.6894C87.0309 60.6106 87.2209 60.5265 87.424 60.446L87.7278 60.3366C87.8324 60.2983 87.9415 60.2735 88.0524 60.2631L88.0428 60.2465C88.5721 60.7374 89.201 61.2991 89.8257 61.9807C90.4505 62.6623 91.0704 63.5009 91.7237 64.3972C93.2191 66.4016 94.4845 68.5678 95.4961 70.8549V70.8549C95.5381 71.0104 95.5807 71.1731 95.6212 71.3258L95.657 71.2354L93.7109 72.4031L91.0598 73.9961L91.1738 74.022C88.9132 70.4089 86.2923 67.0343 83.3512 63.9498L83.3547 64.0066C83.7529 63.3511 84.2063 62.7308 84.71 62.1524C84.8861 61.9553 85.0345 61.8182 85.1342 61.724C85.1802 61.666 85.2222 61.605 85.2599 61.5413V61.5413Z" fill="#263238"/>
<path d="M86.9099 64.2827C86.965 64.458 87.071 64.6129 87.2143 64.7279C87.3576 64.8429 87.5318 64.9128 87.7149 64.9287C87.8979 64.9446 88.0816 64.9058 88.2426 64.8172C88.4035 64.7286 88.5346 64.5942 88.6191 64.4311C88.7037 64.2679 88.7378 64.0834 88.7174 63.9007C88.6969 63.7181 88.6227 63.5457 88.5041 63.4053C88.3856 63.2649 88.228 63.1629 88.0514 63.1121C87.8748 63.0614 87.6872 63.0642 87.5122 63.1202C87.2785 63.195 87.084 63.3593 86.9711 63.5771C86.8582 63.795 86.8362 64.0486 86.9099 64.2827V64.2827Z" fill="#263238"/>
<path d="M89.0273 66.9923C89.0825 67.1674 89.1884 67.3222 89.3316 67.437C89.4749 67.5519 89.6489 67.6217 89.8318 67.6377C90.0147 67.6536 90.1982 67.6149 90.3591 67.5265C90.52 67.4382 90.6511 67.304 90.7358 67.1411C90.8204 66.9782 90.8549 66.7939 90.8348 66.6114C90.8146 66.4289 90.7408 66.2565 90.6227 66.116C90.5046 65.9754 90.3474 65.8731 90.1711 65.8218C89.9949 65.7706 89.8073 65.7729 89.6323 65.8282C89.3978 65.9025 89.2023 66.0667 89.0888 66.285C88.9754 66.5033 88.9532 66.7577 89.0273 66.9923V66.9923Z" fill="#263238"/>
<path d="M97.3201 75.3568C99.516 75.1239 102.14 75.0476 103.65 76.9833C105.038 78.7512 104.52 81.3368 102.958 82.8217C101.919 83.7602 100.625 84.3696 99.239 84.5728C99.0352 84.6189 98.8214 84.5854 98.6415 84.4793C98.4615 84.3731 98.3288 84.2022 98.2706 84.0015C98.219 83.7978 98.2496 83.5821 98.3556 83.4007C98.4616 83.2193 98.6347 83.0869 98.8375 83.032C100.016 82.8359 101.184 82.4113 102.003 81.5234C102.333 81.1809 102.578 80.7664 102.719 80.3128C102.86 79.8592 102.894 79.379 102.818 78.91C102.315 76.4696 99.1441 76.7553 97.2898 76.9634C97.0798 76.96 96.8794 76.8746 96.7316 76.7254C96.5837 76.5762 96.5001 76.3751 96.4986 76.165C96.5062 75.9558 96.5933 75.7573 96.7422 75.61C96.891 75.4627 97.0903 75.3777 97.2997 75.3722L97.3201 75.3568Z" fill="#263238"/>
<path d="M49.4598 99.4615C49.1711 98.1954 48.6156 97.0053 47.8305 95.9709C47.0454 94.9364 46.0487 94.0814 44.9069 93.4627C43.7651 92.844 42.5045 92.476 41.2092 92.3832C39.9139 92.2905 38.6138 92.475 37.3955 92.9246C34.4756 94.0012 32.2749 96.5269 30.9211 99.3308C29.5673 102.135 28.9575 105.236 28.3514 108.279C26.1049 104.776 23.0688 101.736 19.3961 99.7603C17.8905 98.945 15.7021 98.4028 14.9722 100.545C14.7664 101.173 14.7377 101.845 14.8894 102.487C15.3004 104.305 15.9925 105.847 17.3759 108.065C20.4076 112.839 23.8278 117.356 27.6016 121.568C27.8825 121.882 28.2338 122.124 28.6266 122.275C29.0194 122.426 29.4424 122.481 29.8608 122.437C34.1277 121.977 47.2159 119.977 51.2497 112.363" fill="#F5F5F5"/>
<mask id="mask0_514_157350" style="mask-type:luminance" maskUnits="userSpaceOnUse" x="14" y="92" width="38" height="31">
<path d="M49.4637 99.4595C49.175 98.1934 48.6195 97.0034 47.8344 95.9689C47.0493 94.9345 46.0526 94.0794 44.9108 93.4607C43.769 92.8421 42.5084 92.4741 41.2131 92.3813C39.9178 92.2885 38.6177 92.4731 37.3994 92.9227C34.4795 93.9993 32.2789 96.525 30.925 99.3288C29.5712 102.133 28.9614 105.234 28.3553 108.277C26.1088 104.774 23.0727 101.734 19.4 99.7583C17.8944 98.943 15.7061 98.4008 14.9761 100.544C14.7703 101.171 14.7416 101.843 14.8933 102.485C15.3043 104.303 15.9964 105.845 17.3798 108.063C20.4116 112.837 23.8317 117.354 27.6055 121.567C27.8864 121.88 28.2377 122.122 28.6305 122.273C29.0233 122.424 29.4463 122.479 29.8647 122.435C34.1316 121.975 47.2198 119.975 51.2536 112.361" fill="white"/>
</mask>
<g mask="url(#mask0_514_157350)">
<path d="M28.9379 122.566C29.5565 122.576 29.9986 121.898 29.986 121.286C29.9734 120.673 29.6393 120.113 29.3161 119.591L18.9674 102.83C18.3825 101.887 17.7758 100.912 16.8752 100.261C15.9747 99.6107 14.6974 99.3498 13.7468 99.928C12.7962 100.506 12.4399 101.758 12.1906 102.871L19.0408 120.202L28.9379 122.566Z" fill="#E0E0E0"/>
</g>
<path d="M16.7524 100.515C16.805 100.583 16.8612 100.649 16.9208 100.711C17.0365 100.835 17.2056 101.02 17.418 101.261C17.846 101.748 18.4408 102.454 19.1242 103.377C19.8076 104.3 20.5652 105.441 21.3662 106.733C22.1671 108.025 23.0186 109.449 23.9396 110.961C25.762 113.946 27.42 116.659 28.6265 118.634C28.9141 119.133 29.2133 119.562 29.4169 119.965C29.6028 120.305 29.725 120.676 29.7774 121.06C29.8068 121.302 29.7761 121.548 29.688 121.776C29.626 121.929 29.5692 122.002 29.5794 122.007C29.6379 121.942 29.6853 121.868 29.72 121.787C29.8227 121.557 29.8654 121.305 29.844 121.055C29.799 120.66 29.6824 120.277 29.4999 119.925C29.2998 119.508 29.0089 119.074 28.7212 118.576C27.5258 116.594 25.8847 113.879 24.074 110.876C23.161 109.378 22.3004 107.944 21.4912 106.657C20.682 105.37 19.9102 104.23 19.2114 103.312C18.6638 102.585 18.0791 101.886 17.4596 101.219C17.2374 100.98 17.062 100.81 16.9397 100.693C16.8842 100.627 16.8214 100.567 16.7524 100.515V100.515Z" fill="#263238"/>
<path d="M49.428 99.4659C48.9005 97.2338 47.565 95.2761 45.6792 93.9708C43.9752 92.8181 41.9323 92.2739 39.8808 92.4263C35.1564 92.761 31.8954 96.7173 30.3032 100.863C29.3859 103.253 28.8867 105.776 28.3933 108.278C28.3912 108.285 28.387 108.292 28.3812 108.297C28.3755 108.302 28.3684 108.306 28.3607 108.307C28.3531 108.309 28.3452 108.308 28.338 108.305C28.3308 108.302 28.3246 108.297 28.32 108.291C26.8864 106.038 25.1197 104.015 23.08 102.291C22.0447 101.423 20.9337 100.65 19.7603 99.9801C18.7564 99.411 17.444 98.7777 16.269 99.1772C14.8567 99.6549 14.6959 101.436 14.9853 102.675C15.2407 103.712 15.6101 104.719 16.0868 105.676C17.1928 107.922 18.6611 110.014 20.1036 112.055C21.6734 114.278 23.3272 116.439 25.0651 118.538C25.8879 119.531 26.7245 120.516 27.5969 121.48C28.3528 122.306 29.283 122.455 30.3421 122.332C33.7045 121.959 37.0188 121.236 40.2313 120.175C44.0597 118.886 48.0617 116.931 50.4706 113.559C50.7488 113.166 51.0024 112.756 51.2299 112.331C51.2514 112.286 51.3222 112.326 51.2963 112.37C49.889 115.018 47.442 116.926 44.8183 118.312C42.0885 119.708 39.1888 120.743 36.192 121.392C34.9295 121.684 33.6513 121.93 32.3691 122.131C31.8462 122.212 31.3223 122.286 30.7975 122.352C30.3363 122.436 29.8682 122.477 29.3994 122.473C29.0308 122.443 28.6717 122.34 28.3429 122.171C28.0141 122.002 27.722 121.769 27.4834 121.487C26.8305 120.763 26.2091 120.043 25.5881 119.304C24.2911 117.765 23.0399 116.191 21.8345 114.582C20.6292 112.973 19.463 111.322 18.3361 109.629C17.3129 108.073 16.2852 106.49 15.5679 104.764C15.0103 103.423 14.4125 101.79 14.9789 100.362C15.6295 98.7243 17.3814 98.8029 18.761 99.3936C20.5068 100.129 22.1254 101.356 23.5454 102.595C25.0257 103.897 26.3525 105.363 27.5 106.966C27.5853 107.082 28.2567 108.136 28.2929 108.123C28.3866 108.095 28.4242 107.607 28.4462 107.499L28.6073 106.672C28.8091 105.693 29.025 104.713 29.2801 103.743C29.7493 101.858 30.4621 100.041 31.4005 98.339C33.1852 95.1946 36.1622 92.6024 39.8828 92.3407C42.0681 92.1906 44.2355 92.8237 45.9964 94.1266C47.7574 95.4295 48.9968 97.3169 49.4925 99.4506C49.5164 99.4919 49.427 99.5214 49.4154 99.4695L49.428 99.4659Z" fill="#263238"/>
<path d="M34.462 108.223C33.1943 115.828 38.2859 123.554 45.2285 126.915C52.1712 130.276 60.4483 129.872 67.7963 127.535C74.3358 125.462 80.5139 121.829 84.7853 116.464C91.2241 108.375 92.6315 96.9304 89.6184 87.0395C86.6053 77.1487 79.5639 68.7982 71.0721 62.9L44.6961 65.2829L34.462 108.223Z" fill="#F5F5F5"/>
<path d="M34.4658 108.222C34.4658 108.222 34.5368 107.957 34.6626 107.444L35.2138 105.17L37.3018 96.4991L44.7667 65.3024L44.7006 65.3405L71.071 62.9608L71.0189 62.9468C74.8803 65.6242 78.3732 68.7975 81.4078 72.3851C84.6386 76.1812 87.178 80.515 88.9103 85.1891C91.2192 91.5058 91.6537 98.355 90.1615 104.913C89.4534 108.016 88.2466 110.983 86.5882 113.699L85.9665 114.682C85.7583 115.008 85.5144 115.31 85.2895 115.62C85.0646 115.929 84.8402 116.246 84.5959 116.541L83.8832 117.43C82.8864 118.559 81.8058 119.611 80.6505 120.577C79.5228 121.518 78.336 122.386 77.0972 123.176C75.8874 123.937 74.636 124.63 73.3488 125.252C72.0997 125.859 70.8194 126.4 69.5132 126.872C68.227 127.339 66.9429 127.746 65.6596 128.073C60.5384 129.411 55.4958 129.639 51.0762 128.767C48.9709 128.372 46.9309 127.686 45.0147 126.728C43.31 125.865 41.7358 124.764 40.3388 123.46C39.1191 122.33 38.048 121.049 37.1511 119.649C37.0557 119.484 36.9455 119.331 36.8407 119.175C36.7359 119.019 36.6548 118.853 36.5626 118.693C36.3798 118.377 36.2002 118.066 36.0546 117.75C35.7646 117.152 35.5063 116.539 35.2808 115.914C34.6003 114.099 34.2719 112.171 34.3132 110.233C34.3139 109.73 34.3499 109.227 34.4208 108.729C34.4559 108.389 34.4697 108.216 34.4697 108.216C34.4697 108.216 34.4445 108.388 34.3979 108.727C34.3219 109.226 34.2803 109.729 34.2734 110.234C34.2195 112.175 34.5386 114.109 35.2134 115.93C35.4336 116.559 35.6897 117.175 35.9805 117.774C36.1278 118.093 36.3157 118.399 36.489 118.725C36.5812 118.884 36.6733 119.044 36.7671 119.206L37.0763 119.685C37.973 121.094 39.0458 122.384 40.2686 123.523C41.6701 124.835 43.2489 125.943 44.9587 126.816C46.8828 127.781 48.932 128.475 51.0471 128.875C55.4829 129.757 60.5488 129.537 65.6842 128.198C66.993 127.863 68.2839 127.462 69.552 126.996C70.86 126.528 72.1419 125.99 73.3924 125.384C74.6848 124.759 75.9422 124.064 77.1589 123.301C78.4048 122.51 79.5982 121.638 80.7314 120.692C81.8931 119.722 82.9796 118.665 83.9818 117.531L84.7205 116.649C84.9692 116.355 85.1834 116.033 85.4169 115.726C85.6505 115.419 85.8912 115.111 86.0979 114.782L86.7262 113.792C88.3973 111.064 89.6121 108.082 90.3225 104.963C91.8241 98.3709 91.3879 91.4854 89.0665 85.1356C87.3252 80.4444 84.7754 76.0947 81.5327 72.2836C78.487 68.6856 74.9816 65.5035 71.1066 62.8191L71.0939 62.7971L71.0719 62.8098L44.6977 65.2211L44.648 65.224L44.6353 65.2718L37.2241 96.4853L35.1763 105.162L34.6551 107.437C34.521 107.955 34.4658 108.222 34.4658 108.222Z" fill="#263238"/>
<path d="M90.4843 103.439C83.7087 96.7386 74.7662 92.6742 65.2634 91.9753L65.8007 88.8061C75.2006 89.4567 84.3131 92.5781 90.9803 99.2252C90.9803 99.2252 90.8829 100.804 90.7597 101.646C90.6366 102.488 90.4843 103.439 90.4843 103.439Z" fill="#32A9CF"/>
<path d="M57.9233 70.8553C43.7978 75.3442 28.9229 68.2097 24.6994 54.9201C20.4759 41.6305 28.503 27.2182 42.6286 22.7294C56.7541 18.2405 71.6289 25.3749 75.8524 38.6645C80.076 51.9541 72.0488 66.3664 57.9233 70.8553Z" fill="#E0E0E0"/>
<path d="M24.6976 54.9196C24.6976 54.9196 24.6623 54.7822 24.5878 54.5132L24.448 54.0104C24.3891 53.8132 24.3254 53.582 24.2694 53.3134C24.2134 53.0448 24.1431 52.7514 24.0679 52.4242C23.9927 52.0969 23.9493 51.7293 23.8817 51.3389C23.8142 50.9485 23.7756 50.5194 23.7211 50.0627C23.6666 49.606 23.653 49.1184 23.6152 48.6081C23.5773 47.4612 23.6183 46.3131 23.7379 45.1718C23.8874 43.8146 24.1453 42.4716 24.5091 41.1556C25.412 37.9463 26.9257 34.9415 28.9671 32.3059C31.441 29.1074 34.5882 26.4923 38.1856 24.6458C40.1815 23.6148 42.2933 22.8255 44.4762 22.2948C45.6151 22.0145 46.7697 21.8026 47.9338 21.6601C49.1313 21.5255 50.3359 21.4637 51.5409 21.475C58.0615 21.4866 64.3423 23.9357 69.1498 28.3413C71.7099 30.6898 73.7258 33.5694 75.0563 36.7787C76.3868 39.988 76.9998 43.4492 76.8523 46.9202C76.7953 48.2802 76.625 49.6331 76.3434 50.9649C74.9576 57.3393 71.2403 62.9659 65.9206 66.7411C64.9434 67.4471 63.9236 68.0923 62.867 68.673C61.8358 69.2283 60.7716 69.7201 59.6804 70.1458C57.592 70.9722 55.4122 71.5457 53.1874 71.8539C49.1882 72.4203 45.1134 72.1004 41.2514 70.9169C36.7331 69.5561 32.6831 66.9634 29.5558 63.4295C28.8003 62.5659 28.1037 61.6524 27.4708 60.6953C27.1996 60.2574 26.9356 59.8446 26.7122 59.4451C26.4889 59.0455 26.2688 58.6771 26.1123 58.3234C25.9558 57.9697 25.7832 57.6326 25.6368 57.3281C25.4903 57.0236 25.3905 56.7363 25.29 56.486C25.1896 56.2357 25.0963 56.0106 25.0304 55.8138C24.9645 55.617 24.9023 55.4584 24.8544 55.3246C24.7617 55.0624 24.7095 54.9274 24.7095 54.9274C24.7095 54.9274 24.7491 55.066 24.839 55.3297C24.8826 55.4624 24.9456 55.6352 25.0068 55.8238C25.068 56.0123 25.1518 56.2465 25.2566 56.498C25.3614 56.7494 25.4738 57.0331 25.5994 57.346C25.725 57.6589 25.8983 57.9845 26.0667 58.3461C26.2351 58.7076 26.4524 59.0776 26.669 59.4847C26.8857 59.8917 27.1458 60.3104 27.4237 60.7409C28.0532 61.7047 28.7483 62.624 29.5041 63.4924C30.4078 64.5214 31.3932 65.4756 32.4506 66.3458C35.0454 68.4606 38.0241 70.0544 41.2232 71.0396C45.1058 72.239 49.2054 72.5653 53.2287 71.9953C55.4645 71.689 57.6554 71.1153 59.7544 70.2866C60.8531 69.857 61.9246 69.3609 62.963 68.8011C64.025 68.2172 65.0503 67.5689 66.0331 66.8597C70.2277 63.8371 73.4668 59.6742 75.3658 54.8654C75.8514 53.607 76.2393 52.3132 76.526 50.9952C77.2648 47.5752 77.2466 44.035 76.4728 40.6227C75.6989 37.2104 74.1882 34.0086 72.0464 31.2418C71.2086 30.157 70.2814 29.1442 69.2746 28.2142C64.4376 23.7798 58.1145 21.3192 51.5528 21.3176C50.3411 21.3062 49.1299 21.3694 47.926 21.5068C46.7555 21.65 45.5948 21.8642 44.4503 22.1482C42.2565 22.6828 40.1349 23.4789 38.131 24.5195C34.5189 26.3784 31.3612 29.011 28.8828 32.2298C25.9712 35.9656 24.1634 40.4419 23.664 45.1521C23.5494 46.2972 23.5129 47.4488 23.5549 48.5989C23.5887 49.1152 23.6154 49.6063 23.6655 50.0618C23.7157 50.5173 23.7641 50.9444 23.8332 51.3375C23.9024 51.7307 23.9683 52.0927 24.0281 52.4251C24.088 52.7576 24.1752 53.0485 24.2367 53.314C24.2982 53.5794 24.3592 53.8121 24.4223 54.0105C24.4855 54.2089 24.5296 54.3743 24.5704 54.5086C24.6541 54.7869 24.6976 54.9196 24.6976 54.9196Z" fill="#263238"/>
<path d="M35.358 71.7466L33.3532 68.7129C29.8257 63.0607 28.1925 56.0176 29.8225 50.3678C31.4526 44.7179 39.1733 39.5044 49.3439 38.6677C59.5145 37.831 63.0159 37.9014 67.2818 41.9786C71.5478 46.0557 72.0692 53.9572 72.0692 53.9572L72.8888 59.5213C72.8888 59.5213 69.7203 64.2353 66.9531 65.8623C64.1858 67.4893 35.358 71.7466 35.358 71.7466Z" fill="#32A9CF"/>
<g opacity="0.4">
<path d="M43.5255 51.822C43.9072 51.4462 44.3426 51.1293 44.8175 50.8816L44.582 39.3944C46.4412 38.9662 48.3329 38.694 50.2374 38.5809C50.2374 38.5809 48.5224 42.9585 48.7603 50.3118C49.2197 50.4057 49.6652 50.5579 50.0861 50.7648C51.1477 51.3022 52.0172 52.1548 52.5753 53.2057C53.1335 54.2565 53.3531 55.4543 53.2039 56.6348C53.0548 57.8153 52.5442 58.9208 51.7423 59.7998C50.9403 60.6788 49.8861 61.2882 48.7242 61.5447C47.563 61.783 46.3572 61.672 45.259 61.2257C44.1607 60.7794 43.2192 60.0179 42.5533 59.0371C41.8152 57.9203 41.507 56.5738 41.6858 55.2471C41.8645 53.9204 42.5182 52.7035 43.5255 51.822V51.822Z" fill="white"/>
</g>
<path d="M51.1286 49.9709C51.2998 50.9764 51.7652 51.9085 52.466 52.6495C53.1669 53.3906 54.0716 53.9072 55.066 54.1342C56.0603 54.3612 57.0996 54.2883 58.0525 53.9247C59.0054 53.5611 59.8292 52.9233 60.4196 52.0917C61.0101 51.26 61.3407 50.272 61.3698 49.2525C61.399 48.233 61.1252 47.2277 60.5831 46.3637C60.0411 45.4998 59.2551 44.8158 58.3245 44.3984C57.3939 43.981 56.3604 43.8489 55.3547 44.0186C54.6862 44.1315 54.0465 44.3751 53.4722 44.7354C52.8978 45.0957 52.4002 45.5657 52.0077 46.1186C51.6152 46.6714 51.3355 47.2962 51.1846 47.9572C51.0338 48.6182 51.0147 49.3025 51.1286 49.9709Z" fill="white"/>
<path d="M51.1309 49.9687C51.1005 49.545 51.1002 49.1196 51.1299 48.6958C51.2345 47.5453 51.7251 46.464 52.5219 45.6276C53.0643 45.0507 53.7349 44.6095 54.4794 44.3397C55.3329 44.0318 56.2532 43.9579 57.1449 44.1256C57.6247 44.211 58.0882 44.3706 58.5189 44.5985C58.9775 44.823 59.3968 45.12 59.7607 45.4781C60.5354 46.2278 61.0498 47.2058 61.2284 48.269C61.407 49.3322 61.2406 50.4246 60.7534 51.3863C60.3011 52.2805 59.5959 53.022 58.7256 53.5186C58.1062 53.8681 57.4208 54.0847 56.7131 54.1545C56.0053 54.2243 55.2908 54.1458 54.6151 53.924C53.9393 53.7022 53.3173 53.342 52.7885 52.8663C52.2598 52.3906 51.836 51.81 51.5442 51.1614C51.383 50.7711 51.2495 50.3699 51.1446 49.9608C51.1447 49.9888 51.1474 50.0168 51.1525 50.0443C51.165 50.1105 51.1811 50.1893 51.1969 50.2866C51.2185 50.4185 51.2506 50.5484 51.2929 50.6752C51.3423 50.8516 51.405 51.024 51.4805 51.1909C51.6724 51.6561 51.9357 52.0885 52.2608 52.4726C52.736 53.0409 53.327 53.5013 53.9944 53.823C54.6617 54.1446 55.39 54.3202 56.1306 54.3379C57.0673 54.3604 57.9926 54.1292 58.8086 53.6688C59.2521 53.4263 59.6548 53.1158 60.0022 52.7485C60.3756 52.3781 60.6874 51.9503 60.9257 51.4813C61.4327 50.4854 61.6062 49.3528 61.4205 48.2507C61.2349 47.1486 60.6999 46.1353 59.8946 45.3604C59.5203 44.9889 59.0882 44.6806 58.6152 44.4475C58.1659 44.2151 57.6836 44.0529 57.1852 43.9666C56.2566 43.7926 55.2984 43.8717 54.4109 44.1957C53.648 44.4792 52.9628 44.9389 52.4112 45.5374C51.9544 46.0256 51.5983 46.5991 51.3634 47.225C51.1798 47.6937 51.0716 48.1885 51.0427 48.691C51.0258 48.8729 51.0235 49.0559 51.0357 49.2382C51.0372 49.3726 51.0495 49.5066 51.0726 49.639C51.0884 49.7363 51.0975 49.8155 51.11 49.8817C51.1128 49.9115 51.1198 49.9408 51.1309 49.9687Z" fill="#263238"/>
<path d="M56.7438 50.359C56.8954 48.4732 56.1503 46.8775 55.08 46.7908C54.0097 46.7041 53.0209 48.1631 52.8704 50.0447C52.7199 51.9262 53.4612 53.5278 54.5314 53.6145C55.6017 53.7012 56.5906 52.2422 56.7438 50.359Z" fill="#263238"/>
<path d="M66.7137 42.6347C66.7137 42.6347 62.725 29.5857 60.4289 28.412C58.1329 27.2383 52.1603 39.2745 52.1603 39.2745L63.4677 42.2884L66.7137 42.6347Z" fill="#32A9CF"/>
<path d="M43.7101 40.5573C43.7101 40.5573 38.9156 35.4311 37.9755 34.7627C37.0355 34.0943 34.6921 31.4212 33.0332 32.8194C31.3743 34.2176 32.2372 46.0287 32.2372 46.0287L40.0488 43.0638L43.7101 40.5573Z" fill="#32A9CF"/>
<path d="M54.9684 50.4812C54.9717 50.6775 55.5956 50.8237 56.3607 50.8077C57.1258 50.7917 57.7404 50.6167 57.7371 50.4204C57.7339 50.2241 57.11 50.0778 56.3449 50.0938C55.5798 50.1098 54.9556 50.2683 54.9684 50.4812Z" fill="white"/>
<path d="M46.5831 53.5368C46.5508 53.6629 46.5394 53.7934 46.5494 53.9233C46.5604 54.2844 46.6168 54.6427 46.7174 54.9897C46.867 55.5036 47.1133 55.9842 47.4431 56.4057C47.8611 56.9263 48.4099 57.3263 49.0335 57.5648C49.6573 57.8108 50.3408 57.8626 50.9946 57.7134C51.5253 57.5875 52.0141 57.3255 52.4127 56.9533C52.6814 56.7063 52.8987 56.4088 53.0522 56.0777C53.1138 55.9598 53.1544 55.8321 53.1719 55.7003C52.9675 56.1375 52.6796 56.5306 52.3244 56.8575C51.9314 57.1948 51.4623 57.4316 50.9576 57.5476C50.3366 57.6755 49.6918 57.6207 49.1013 57.3898C48.5081 57.1635 47.9836 56.7873 47.5791 56.2979C47.25 55.8945 46.9988 55.4335 46.8382 54.9383C46.708 54.4805 46.6226 54.0111 46.5831 53.5368Z" fill="#263238"/>
<path d="M41.2248 56.5991C41.2823 56.7069 41.3554 56.8057 41.4417 56.8922C41.658 57.1489 41.8942 57.388 42.1482 57.6073C42.5273 57.9468 42.9922 58.1759 43.4923 58.27C44.1211 58.3518 44.757 58.1859 45.2658 57.8076C45.7756 57.4455 46.1674 56.941 46.3919 56.3574C46.5718 55.8894 46.6758 55.3958 46.6999 54.895C46.7174 54.5607 46.7091 54.2256 46.6753 53.8926C46.6733 53.7691 46.651 53.6468 46.6095 53.5306C46.5819 53.5465 46.6394 54.0528 46.5654 54.8846C46.5263 55.3684 46.4131 55.8435 46.23 56.293C46.0087 56.8381 45.6356 57.3083 45.1551 57.6476C44.6856 58.0001 44.0994 58.16 43.5159 58.0949C43.0419 58.0126 42.5979 57.8069 42.2285 57.4986C41.588 56.9802 41.2471 56.5678 41.2248 56.5991Z" fill="#263238"/>
<path d="M45.343 58.6387C45.4541 58.8189 45.6133 58.9647 45.8025 59.0596C46.2379 59.3312 46.7443 59.4669 47.2571 59.4493C47.7699 59.4318 48.2658 59.2617 48.6815 58.9609C48.864 58.8532 49.0125 58.6962 49.1099 58.508C49.0956 58.4833 48.9237 58.6559 48.6065 58.8501C48.2004 59.1049 47.7348 59.2489 47.2558 59.2679C46.7768 59.2869 46.3012 59.1802 45.8762 58.9584C45.5375 58.7722 45.363 58.6161 45.343 58.6387Z" fill="#263238"/>
<g opacity="0.3">
<path d="M62.8456 41.3945C62.8456 41.3945 60.9477 30.0854 59.8065 30.0983C58.6653 30.1113 54.1309 39.0638 54.1309 39.0638C54.1309 39.0638 59.5465 42.9139 62.8456 41.3945Z" fill="black"/>
</g>
<path d="M53.5976 39.0631C55.0066 38.4588 56.9644 38.4111 58.4934 38.5486C57.9263 38.7778 57.4475 39.1828 57.1275 39.7042C59.6341 40.0921 62.2719 40.5546 64.2768 42.1203L62.5966 42.8078L55.8083 42.9175L53.5976 39.0631Z" fill="#32A9CF"/>
<g opacity="0.3">
<path d="M42.5175 41.2096C42.5175 41.2096 34.4084 33.1012 33.4862 33.7731C32.564 34.445 34.0681 44.3666 34.0681 44.3666C34.0681 44.3666 40.7103 44.3596 42.5175 41.2096Z" fill="black"/>
</g>
<path d="M33.6341 44.6764C34.4297 43.3656 35.9966 42.1894 37.32 41.4179C36.994 41.9307 36.8397 42.5339 36.8795 43.1403C39.1609 42.0066 41.5632 40.8472 44.1044 40.9581L43.1344 42.4944L37.6756 46.5342L33.6341 44.6764Z" fill="#32A9CF"/>
<path d="M32.8126 52.2646C32.9815 53.2708 33.445 54.2043 34.1445 54.947C34.844 55.6898 35.748 56.2085 36.7422 56.4374C37.7364 56.6664 38.7762 56.5954 39.73 56.2334C40.6839 55.8714 41.5089 55.2347 42.1009 54.4038C42.6928 53.5729 43.0251 52.585 43.0556 51.5652C43.0862 50.5454 42.8136 49.5395 42.2725 48.6746C41.7313 47.8096 40.9458 47.1246 40.0154 46.7061C39.0849 46.2876 38.0512 46.1544 37.0451 46.3234C36.3769 46.4352 35.7373 46.6776 35.1629 47.0368C34.5884 47.3959 34.0904 47.8648 33.6973 48.4166C33.3042 48.9684 33.0238 49.5923 32.872 50.2525C32.7201 50.9128 32.7 51.5965 32.8126 52.2646Z" fill="white"/>
<path d="M32.8087 52.266C32.7728 51.8453 32.7679 51.4225 32.7939 51.001C32.8995 49.8508 33.39 48.7698 34.186 47.9329C34.7285 47.356 35.399 46.9148 36.1434 46.6449C36.9979 46.3371 37.9189 46.2627 38.8117 46.4293C39.7975 46.6135 40.7072 47.0839 41.4275 47.7817C42.2029 48.5318 42.7173 49.5108 42.895 50.5748C43.0726 51.6389 42.9043 52.7319 42.4146 53.6931C42.1906 54.1507 41.8946 54.5694 41.5379 54.9333C41.2024 55.2883 40.8148 55.59 40.3885 55.8282C39.7693 56.1782 39.084 56.3951 38.3762 56.465C37.6685 56.535 36.9539 56.4564 36.2782 56.2344C35.6025 56.0124 34.9806 55.6518 34.4523 55.1757C33.9239 54.6996 33.5008 54.1184 33.2098 53.4694C33.0463 53.0799 32.9127 52.6786 32.8103 52.2688C32.8086 52.2969 32.8112 52.325 32.8181 52.3523L32.8626 52.5946C32.8827 52.7268 32.9148 52.8569 32.9585 52.9833C33.0069 53.1601 33.0687 53.333 33.1434 53.5004C33.3353 53.9657 33.5986 54.3981 33.9237 54.7822C34.3974 55.3518 34.9872 55.8137 35.6536 56.1371C36.3201 56.4606 37.0478 56.6381 37.7884 56.6577C38.7261 56.6796 39.6523 56.4479 40.4692 55.9871C41.3732 55.4781 42.1062 54.7127 42.5755 53.7874C43.0812 52.7911 43.2543 51.6589 43.0692 50.5569C42.8841 49.455 42.3507 48.4414 41.5472 47.6649C41.1767 47.2929 40.7495 46.9821 40.2816 46.7441C39.8318 46.5128 39.3497 46.3507 38.8516 46.2631C37.929 46.0978 36.979 46.1813 36.0994 46.5052C35.4055 46.7648 34.7749 47.1693 34.2494 47.6916C33.7239 48.2139 33.3157 48.8422 33.0519 49.5345C32.8708 50.004 32.7627 50.4983 32.7313 51.0005C32.7171 51.1826 32.7147 51.3654 32.7242 51.5477C32.725 51.6821 32.7374 51.8162 32.7611 51.9485L32.7985 52.1912C32.7976 52.2165 32.801 52.2418 32.8087 52.266V52.266Z" fill="#263238"/>
<path d="M39.3246 52.3635C39.3591 50.4719 38.52 48.9231 37.4481 48.9034C36.3761 48.8837 35.4794 50.407 35.4385 52.2877C35.3976 54.1683 36.2415 55.7254 37.3151 55.7478C38.3886 55.7702 39.2858 54.254 39.3246 52.3635Z" fill="#263238"/>
<path d="M63.5292 41.8899C63.5292 41.8899 63.5054 41.8486 63.4349 41.7902C63.3645 41.7318 63.2707 41.6391 63.1295 41.5408C62.7388 41.25 62.3192 41.0004 61.8773 40.7958C60.4097 40.1405 58.8287 39.7769 57.2223 39.7252L57.1793 39.7206L57.2603 39.861C57.5512 39.374 57.9562 38.9651 58.4404 38.6695L58.6331 38.5583L58.418 38.51C57.2433 38.2399 56.019 38.2747 54.8614 38.6109C54.5277 38.7066 54.2026 38.8304 53.8898 38.981C53.7746 39.0283 53.6663 39.0908 53.5677 39.167C53.582 39.1917 54.0426 38.9405 54.8923 38.7215C56.0334 38.428 57.2287 38.4154 58.3758 38.6848L58.3503 38.5197C57.8384 38.8285 57.4096 39.2575 57.1011 39.7695L57.0208 39.9038L57.1794 39.9114L57.2208 39.9132C58.8027 39.9718 60.3611 40.3153 61.8211 40.9273C62.4172 41.1981 62.9887 41.5202 63.5292 41.8899Z" fill="#263238"/>
<path d="M43.3218 40.9748C43.3218 40.9748 43.2713 40.9636 43.1787 40.9621C43.0435 40.9557 42.9081 40.9567 42.773 40.9651C42.2734 40.9919 41.7769 41.0613 41.2889 41.1723C39.6675 41.5371 38.1328 42.2149 36.7711 43.1678L36.9172 43.2302L36.9089 43.1396C36.913 42.8405 36.974 42.545 37.0887 42.2687C37.1872 41.988 37.3106 41.7186 37.4111 41.4477L37.4893 41.2337L37.2967 41.3449C36.1475 41.8935 35.1373 42.6951 34.3419 43.6895C34.1125 43.9779 33.9117 44.288 33.7425 44.6154C33.6768 44.7317 33.6249 44.8552 33.588 44.9835C33.8395 44.5567 34.1215 44.1486 34.4317 43.7624C35.2375 42.8071 36.2384 42.0352 37.3671 41.4987L37.2436 41.3865C37.1455 41.6487 37.0194 41.9197 36.9142 42.208C36.7916 42.5073 36.7272 42.8272 36.7245 43.1506C36.7266 43.1861 36.7303 43.2243 36.7352 43.2582L36.7462 43.417L36.8813 43.3207C38.2262 42.3839 39.7307 41.7005 41.3211 41.3042C41.8007 41.1822 42.2884 41.0944 42.7805 41.0415C42.962 41.0294 43.1428 41.0071 43.3218 40.9748V40.9748Z" fill="#263238"/>
<g opacity="0.4">
<path d="M71.9229 52.728C70.2034 53.8051 68.6312 54.7752 66.698 54.9481C66.3467 55.01 65.9847 54.9575 65.6655 54.7982C65.3463 54.639 65.0866 54.3814 64.9248 54.0635C64.7587 53.6947 64.6679 53.2966 64.6575 52.8923C64.6472 52.488 64.7176 52.0858 64.8646 51.709C65.1244 51.1341 65.5172 50.6293 66.0107 50.2362C67.3216 49.0426 68.9242 47.6549 70.2324 46.4629C71.4729 49.1709 71.6511 51.2847 71.9229 52.728Z" fill="white"/>
</g>
<g opacity="0.4">
<path d="M29.0819 55.6459C29.2653 54.7876 29.7459 57.4316 30.3966 58.0247C31.0734 58.5829 31.8131 59.0599 32.6008 59.446C33.3886 59.835 34.0837 60.3886 34.639 61.0695C35.1059 61.7065 35.3209 62.6319 34.8578 63.2663C34.4789 63.786 33.7823 63.946 33.1472 64.0411C32.3896 64.1592 31.4874 64.1919 30.9936 63.6036C30.9971 63.5905 28.2921 59.3058 29.0819 55.6459Z" fill="white"/>
</g>
<path d="M48.7111 50.699C47.4437 50.4008 46.1106 50.5832 44.9699 51.2111C44.4491 51.4531 44.3104 51.9185 44.6024 52.1573L46.3506 53.6216C46.4324 53.6898 46.5363 53.726 46.6428 53.7232C46.7492 53.7205 46.8511 53.6791 46.9293 53.6068L49.1327 51.6007C49.4467 51.3056 49.1561 50.7577 48.7111 50.699Z" fill="#263238"/>
<path d="M45.7024 51.3785C45.7294 51.4253 46.3519 51.2641 47.1547 51.2116C47.9575 51.1592 48.6044 51.2371 48.6069 51.1843C47.6429 50.916 46.6158 50.9902 45.7005 51.3943L45.7024 51.3785Z" fill="white"/>
<path d="M51.4625 56.6204C51.4552 56.665 55.4093 57.3988 60.2979 58.2575C65.1865 59.1161 69.1549 59.7794 69.167 59.7431C69.179 59.7067 65.2201 58.9646 60.3299 58.1032C55.4397 57.2418 51.4698 56.5758 51.4625 56.6204Z" fill="#263238"/>
<path d="M73.8004 55.1426C73.726 55.1202 73.6492 55.1067 73.5716 55.1022L72.9172 55.0176C72.346 54.9437 71.5194 54.8594 70.4976 54.7741C68.448 54.5994 65.6102 54.4579 62.4756 54.495C59.3409 54.5322 56.5051 54.7564 54.4625 54.9815C53.4302 55.1004 52.619 55.2018 52.0591 55.2681L51.4059 55.37C51.329 55.3775 51.2531 55.393 51.1794 55.4163C51.2568 55.4213 51.3344 55.4171 51.4108 55.4039L52.0672 55.3331C52.637 55.2648 53.4633 55.1768 54.4882 55.0768C56.5325 54.8801 59.3613 54.6819 62.49 54.6408C65.6187 54.5998 68.4541 54.7244 70.5004 54.8679C71.5213 54.9391 72.3526 55.0059 72.9225 55.0586L73.5807 55.1117C73.653 55.1275 73.7265 55.1379 73.8004 55.1426V55.1426Z" fill="#263238"/>
<path d="M37.6517 52.4885C37.6577 52.6832 38.2788 52.831 39.0439 52.815C39.809 52.799 40.428 52.6252 40.4231 52.4261C40.4183 52.2271 39.796 52.0836 39.0309 52.0996C38.2658 52.1156 37.6468 52.2894 37.6517 52.4885Z" fill="white"/>
<path d="M53.4989 23.2155C77.2879 28.1175 74.8043 47.9385 74.8043 47.9385C70.1084 35.8703 65.51 29.3867 54.76 27.0016L53.4989 23.2155Z" fill="white"/>
<path d="M52.5672 27.1079L51.3289 23.2023C51.3289 23.2023 48.0383 23.0138 43.1553 24.3833L44.1558 28.2648C44.1558 28.2648 47.3851 26.8151 52.5672 27.1079Z" fill="white"/>
<path d="M26.9434 56.9745C26.9994 56.9862 27.0566 56.9914 27.1138 56.9899L27.6019 57.009C28.0242 57.0221 28.6368 57.0281 29.3914 57.0255C30.9075 57.02 32.9997 56.9571 35.3016 56.7806C37.6034 56.604 39.6869 56.348 41.1827 56.1229C41.9293 56.0112 42.53 55.9139 42.9511 55.836L43.4296 55.7432C43.4866 55.7366 43.5423 55.7218 43.595 55.6991C43.5381 55.6941 43.4807 55.6976 43.4248 55.7093L42.9429 55.771L41.1672 56.0071C39.6681 56.201 37.592 56.4381 35.2819 56.6194C32.9718 56.8007 30.8946 56.877 29.3818 56.9136L27.5926 56.9484L27.105 56.962C27.0508 56.9584 26.9964 56.9626 26.9434 56.9745V56.9745Z" fill="#263238"/>
<path d="M26.4606 58.7049C26.5174 58.7125 26.5747 58.7138 26.6317 58.7089L27.1182 58.6996C27.5431 58.6855 28.1536 58.656 28.9028 58.6125C30.4122 58.5191 32.4981 58.3498 34.7916 58.0826C37.0852 57.8154 39.1522 57.4991 40.6432 57.2402C41.3916 57.1127 41.9915 57.0012 42.405 56.9166L42.8832 56.8167C42.9396 56.8085 42.9947 56.7928 43.047 56.7699C42.9904 56.767 42.9337 56.7713 42.8783 56.7828L42.3941 56.8532L40.6313 57.137C39.137 57.3647 37.0687 57.6597 34.7874 57.9419C32.5062 58.224 30.4148 58.3965 28.9087 58.521L27.1231 58.6637L26.6372 58.7057C26.5787 58.6966 26.5192 58.6963 26.4606 58.7049Z" fill="#263238"/>
<path d="M36.2677 113.718C22.3222 109.981 14.0461 95.6459 17.7825 81.7002C21.5188 67.7546 35.8528 59.4788 49.7983 63.2159C63.7438 66.9529 72.0199 81.2876 68.2835 95.2333C64.5472 109.179 50.2132 117.455 36.2677 113.718Z" fill="white"/>
<path d="M26.5982 68.0404C26.6243 68.0309 26.6485 68.0169 26.6698 67.9991L26.8663 67.8563C27.0384 67.7349 27.2784 67.5339 27.6109 67.3089C28.5322 66.6491 29.4991 66.0553 30.5043 65.5319C33.8257 63.7959 37.4713 62.7683 41.2104 62.5144C43.2646 62.3808 45.3274 62.5014 47.352 62.8735C50.1245 63.3812 52.7956 64.3382 55.2596 65.7069C55.6168 65.8933 55.8762 66.0629 56.0604 66.1658C56.1473 66.2147 56.2165 66.2518 56.2726 66.2855C56.296 66.2997 56.3211 66.3112 56.3473 66.3194C56.327 66.3006 56.3051 66.2838 56.2816 66.2693L56.08 66.1361C55.8997 66.0273 55.6438 65.8447 55.2905 65.6523C54.3063 65.0778 53.2811 64.5768 52.2231 64.1533C50.6562 63.5152 49.0283 63.0384 47.3647 62.7304C46.3835 62.5505 45.393 62.4265 44.3978 62.3587C43.3281 62.2898 42.2551 62.289 41.1853 62.3564C37.4239 62.6098 33.7594 63.6597 30.4345 65.4365C29.431 65.9717 28.47 66.583 27.5598 67.265C27.2321 67.4983 26.9969 67.7075 26.8311 67.8399L26.6481 67.9932L26.5982 68.0404Z" fill="#263238"/>
<g opacity="0.3">
<path d="M30.5575 72.8003C31.9381 73.5961 32.503 75.3692 32.3319 76.9543C32.1608 78.5395 31.3919 79.9854 30.6361 81.3906C30.2737 82.066 29.8202 82.8123 29.0663 82.9686C28.2223 83.1402 27.436 82.4712 26.964 81.7491C26.4502 80.948 26.1292 80.0388 26.0262 79.0927C25.9232 78.1466 26.041 77.1896 26.3704 76.2968C27.0342 74.5226 28.5658 71.9758 30.5823 72.786" fill="black"/>
</g>
<g opacity="0.3">
<path d="M37.3163 68.8031C37.4071 68.3433 37.6459 67.9258 37.9961 67.6143C38.3463 67.3028 38.7887 67.1143 39.256 67.0777V67.0777C39.9596 66.7962 41.7968 67.8935 41.7229 69.0812C41.6704 69.6743 41.3967 70.2259 40.9562 70.6265C40.5157 71.027 39.9406 71.2471 39.3452 71.2431C39.0508 71.2186 38.7643 71.1356 38.5023 70.9992C38.2404 70.8628 38.0082 70.6755 37.8193 70.4484C37.6304 70.2213 37.4887 69.9588 37.4023 69.6764C37.316 69.3939 37.2867 69.097 37.3163 68.8031V68.8031Z" fill="black"/>
</g>
<g opacity="0.3">
<path d="M50.6521 113.665C44.4555 115.631 37.7486 115.217 31.8401 112.505C25.9316 109.793 21.2454 104.977 18.6959 98.9962C18.6038 97.1078 19.0209 92.173 19.8988 89.0788C20.467 87.0882 22.7189 86.5771 23.6428 87.1667C25.8935 88.6051 25.4577 92.7067 27.9566 93.6532C29.4414 94.2162 31.1232 93.1755 31.9398 91.8122C32.7564 90.4489 32.9762 88.8209 33.433 87.2984C33.8898 85.7758 34.724 84.2078 36.1993 83.6167C38.3372 82.7493 40.7807 84.4581 41.7469 86.5574C42.7131 88.6568 42.6832 91.0522 43.0269 93.3384C43.3706 95.6246 44.2938 98.0753 46.3642 99.1188C48.5823 100.227 51.4079 99.2163 53.0533 97.3561C54.6987 95.4959 55.3845 92.997 55.8261 90.5584C56.3143 87.8417 56.5549 85.0863 56.545 82.3261C56.5413 81.3153 56.4773 80.2255 55.8276 79.4372C55.0595 78.5008 53.7175 78.325 52.6214 77.8311C49.6604 76.5165 48.3235 72.6054 49.4998 69.5957C50.2901 67.5576 52.0229 66.014 54.0597 65.1941C58.7808 67.4606 62.7122 71.0932 65.3442 75.6209C67.9761 80.1486 69.1872 85.3625 68.8204 90.5867C68.4536 95.8108 66.5259 100.804 63.2871 104.919C60.0484 109.035 55.648 112.082 50.6565 113.666L50.6521 113.665ZM37.1948 93.2483C35.0792 91.1667 34.1499 95.3733 33.8856 96.994C33.6487 98.4079 33.2701 99.7863 33.2978 101.22C33.3204 102.308 33.3759 103.447 34.082 104.32C34.2668 104.562 34.5059 104.757 34.78 104.889C35.0541 105.022 35.3555 105.088 35.6599 105.082C36.6251 105.032 37.1 104.214 37.4308 103.44C38.5405 100.809 38.8105 97.9 38.2037 95.1102C38.0581 94.4037 37.7071 93.756 37.1948 93.2483V93.2483Z" fill="black"/>
</g>
<path d="M71.825 67.4919C65.2409 66.379 57.7906 65.6854 50.7741 66.5251C50.6071 66.1014 50.3471 65.7207 50.0133 65.411C49.6795 65.1013 49.2804 64.8704 48.8455 64.7355C47.9772 64.5029 46.9192 64.8825 46.5287 65.7062C46.1382 66.5298 46.6061 67.6836 47.4978 67.8551C46.3543 67.7814 45.1319 68.5054 44.913 69.6264C44.6941 70.7474 45.8531 71.9793 46.9364 71.6182C46.5513 71.7678 46.2215 72.0323 45.9918 72.3757C45.762 72.719 45.6434 73.1247 45.6519 73.5378C45.6805 73.9475 45.8436 74.3363 46.116 74.6436C46.3884 74.951 46.7547 75.1597 47.1579 75.2374C47.5669 75.2928 47.9822 75.2009 48.3297 74.9781C48.6771 74.7553 48.9339 74.4162 49.0542 74.0214C48.9388 74.2704 48.8851 74.5435 48.8977 74.8176C48.9103 75.0917 48.9888 75.3587 49.1265 75.596C49.2642 75.8333 49.4571 76.034 49.6889 76.1809C49.9206 76.3278 50.1843 76.4167 50.4577 76.44C50.7311 76.4633 51.0061 76.4203 51.2594 76.3148C51.5126 76.2092 51.7367 76.0441 51.9126 75.8335C52.0884 75.6229 52.211 75.373 52.2697 75.105C52.3285 74.837 52.3218 74.5588 52.2502 74.2939L72.3417 81.1251" fill="#F5F5F5"/>
<path d="M72.3582 81.1205C72.3273 81.1064 72.2957 81.094 72.2634 81.0835C72.1962 81.0562 72.1046 81.0247 71.9838 80.9807L70.8929 80.5976L66.7677 79.1734L52.2813 74.2258L52.1475 74.1783L52.1828 74.3157C52.2305 74.5601 52.2245 74.812 52.1652 75.0539C52.1058 75.2958 51.9945 75.5219 51.839 75.7164C51.6835 75.9109 51.4875 76.0693 51.2646 76.1805C51.0418 76.2917 50.7974 76.353 50.5484 76.3603C49.5119 76.3385 48.6913 75.0506 49.1387 74.0583L48.9875 74.0062C48.9043 74.2803 48.7511 74.5281 48.5429 74.7249C48.3347 74.9216 48.0788 75.0607 47.8004 75.1283C47.5149 75.1984 47.2156 75.188 46.9357 75.0982C46.6558 75.0084 46.4063 74.8428 46.2149 74.6197C46.0079 74.4053 45.8602 74.1409 45.7862 73.8522C45.7122 73.5636 45.7145 73.2607 45.7928 72.9733C45.8743 72.6819 46.0221 72.4133 46.2248 72.1887C46.4275 71.964 46.6795 71.7894 46.961 71.6786L46.9059 71.5195C46.7608 71.566 46.6083 71.5843 46.4563 71.5736C45.44 71.485 44.6749 70.2679 45.076 69.3354C45.2659 68.8673 45.6149 68.4813 46.0614 68.2453C46.4972 68.0036 46.9922 67.8895 47.4898 67.9161L47.5099 67.754C47.3476 67.7183 47.1941 67.6501 47.0589 67.5535C46.9236 67.4568 46.8093 67.3338 46.7229 67.1917C46.5385 66.9094 46.4486 66.5756 46.4664 66.2388C46.4826 65.9092 46.6152 65.596 46.8405 65.3549C47.0647 65.1145 47.3474 64.9362 47.6609 64.8372C47.9703 64.7379 48.2984 64.7104 48.6201 64.7569C48.9377 64.806 49.2413 64.9222 49.5105 65.0979C50.0425 65.4486 50.4589 65.9487 50.7075 66.5354L50.7361 66.585L50.794 66.5772C53.6275 66.2559 56.4805 66.1395 59.3308 66.2288C61.8951 66.297 64.1411 66.494 65.9912 66.692C67.8414 66.89 69.3049 67.0984 70.3005 67.2465L71.4414 67.4173L71.7329 67.4582L71.8347 67.4692C71.8347 67.4692 71.8027 67.4583 71.7364 67.4452L71.4456 67.3928C71.188 67.3471 70.8065 67.2774 70.309 67.1976C69.3141 67.038 67.8541 66.8166 66.0015 66.6017C64.1489 66.3868 61.9025 66.1827 59.3346 66.1018C56.4782 66.008 53.6187 66.122 50.7788 66.4429L50.8599 66.4878C50.6035 65.8709 50.1712 65.3432 49.6168 64.9705C49.3302 64.7838 49.008 64.6587 48.6706 64.6029C48.3191 64.5531 47.9609 64.5853 47.624 64.697C47.2832 64.8032 46.9761 64.9969 46.7336 65.2588C46.4857 65.5264 46.3375 65.8712 46.3138 66.2352C46.2967 66.6043 46.3948 66.9696 46.5944 67.2806C46.6929 67.441 46.8229 67.5798 46.9765 67.6885C47.1301 67.7973 47.3042 67.8738 47.4882 67.9133L47.5084 67.7512C46.9784 67.7256 46.4518 67.848 45.9875 68.1045C45.5072 68.3582 45.1321 68.7736 44.9287 69.2773C44.8381 69.5391 44.807 69.8179 44.8376 70.0933C44.8682 70.3687 44.9597 70.6339 45.1056 70.8695C45.2514 71.1051 45.448 71.3052 45.6808 71.4554C45.9137 71.6056 46.1771 71.702 46.4519 71.7376C46.6249 71.7505 46.7986 71.7299 46.9638 71.677L46.9102 71.5207C46.604 71.642 46.33 71.8326 46.1098 72.0776C45.8895 72.3225 45.729 72.6152 45.6409 72.9325C45.5196 73.4062 45.5821 73.9082 45.8158 74.3377C46.0494 74.7671 46.437 75.0923 46.9005 75.2478C47.2057 75.347 47.5332 75.3555 47.8432 75.2724C48.1492 75.1971 48.4301 75.0428 48.6579 74.825C48.8857 74.6072 49.0524 74.3335 49.1413 74.0311L48.9901 73.979C48.8854 74.2465 48.8443 74.5346 48.8699 74.8207C48.8956 75.1068 48.9872 75.3831 49.1377 75.6277C49.2882 75.8724 49.4935 76.0788 49.7373 76.2307C49.9811 76.3826 50.2568 76.4758 50.5428 76.503C50.819 76.502 51.0912 76.4369 51.3379 76.3129C51.5847 76.1888 51.7994 76.0093 51.9651 75.7883C52.1374 75.5803 52.2596 75.3354 52.3224 75.0727C52.3851 74.8099 52.3866 74.5363 52.3269 74.2729L52.2283 74.3628L66.7314 79.2567L70.8698 80.6403L71.9693 81L72.2524 81.0899L72.3582 81.1205Z" fill="#263238"/>
<path d="M56.8333 75.8041C56.9223 75.7032 57.0002 75.5931 57.0656 75.4755C57.1527 75.3453 57.233 75.2107 57.3063 75.0723C57.3919 74.9091 57.4979 74.7305 57.5876 74.5172C57.8174 74.0263 58.0073 73.5178 58.1556 72.9965C58.3259 72.3589 58.4412 71.7079 58.5001 71.0506C58.5533 70.3892 58.5477 69.7243 58.4833 69.0638C58.4275 68.5243 58.3278 67.9902 58.1853 67.4669C58.1334 67.2436 58.0604 67.0472 58.0028 66.8713C57.9549 66.722 57.8986 66.5757 57.8341 66.4328C57.7915 66.3065 57.734 66.1857 57.663 66.0729C57.6355 66.0888 57.8589 66.6094 58.073 67.495C58.1962 68.0157 58.2831 68.5443 58.3332 69.0771C58.3852 69.7286 58.3864 70.3831 58.3368 71.0348C58.272 71.6881 58.1546 72.3352 57.986 72.9696C57.8481 73.4856 57.6724 73.9906 57.4601 74.4807C57.1149 75.3002 56.8053 75.7873 56.8333 75.8041Z" fill="#263238"/>
<path d="M46.7405 71.7004C47.0566 71.584 47.3786 71.4839 47.705 71.4005C48.0413 71.369 48.3792 71.3577 48.7168 71.3668C48.3909 71.2226 48.0299 71.1774 47.6785 71.2367C47.3271 71.296 47.001 71.4573 46.7405 71.7004V71.7004Z" fill="#263238"/>
<path d="M69.7639 80.2485C71.5003 76.086 71.3386 71.0449 69.187 67.083L66.7254 66.805C68.877 70.7669 68.9934 75.2653 67.2569 79.4278" fill="#32A9CF"/>
<path d="M71.5955 102.175C70.9782 101.032 70.1244 100.034 69.0911 99.2471C68.0577 98.4604 66.8686 97.903 65.6028 97.612C64.3371 97.321 63.0239 97.3032 61.7508 97.5598C60.4777 97.8163 59.2739 98.3413 58.2197 99.0997C55.695 100.924 54.2567 103.957 53.6952 107.008C53.1336 110.059 53.3756 113.211 53.6118 116.316C50.5091 113.541 46.7712 111.427 42.7168 110.495C41.0326 110.12 38.789 110.175 38.6583 112.434C38.6293 113.093 38.7824 113.748 39.1008 114.326C39.9841 115.97 41.0646 117.269 42.9904 119.035C47.1898 122.823 51.6938 126.26 56.4567 129.309C56.8117 129.536 57.2155 129.675 57.6348 129.715C58.0541 129.755 58.4769 129.695 58.8684 129.539C62.8607 127.968 74.9305 122.526 76.7788 114.108" fill="#F5F5F5"/>
<path d="M71.562 102.192C70.484 100.23 68.732 98.7236 66.6299 97.9527C64.5531 97.2153 62.2798 97.2531 60.2287 98.0591C55.9557 99.7223 53.9509 104.253 53.5081 108.545C53.246 111.13 53.4374 113.724 53.6429 116.318C53.6451 116.353 53.5974 116.366 53.5796 116.354C51.5905 114.564 49.3413 113.086 46.9088 111.97C45.6967 111.421 44.4385 110.979 43.1488 110.651C42.0934 110.387 40.8431 110.147 39.8176 110.64C38.5202 111.253 38.4894 112.922 39.0146 114.08C39.5271 115.137 40.1911 116.114 40.9856 116.979C42.7742 119.022 44.9369 120.772 47.0425 122.474C49.3035 124.305 51.6372 126.042 54.0435 127.684C54.6256 128.082 55.206 128.469 55.7848 128.844C56.3683 129.219 56.922 129.619 57.6296 129.687C58.4329 129.763 59.1626 129.393 59.8791 129.09C62.9887 127.805 65.9525 126.192 68.7203 124.279C71.8917 122.055 75.007 119.181 76.348 115.452C76.5042 115.013 76.6337 114.564 76.7358 114.109C76.747 114.059 76.8224 114.081 76.8112 114.132C76.2007 116.888 74.517 119.273 72.5318 121.238C70.4212 123.257 68.0564 124.992 65.4973 126.4C63.5242 127.522 61.4806 128.516 59.3793 129.374C58.8358 129.646 58.2326 129.778 57.6252 129.756C56.769 129.678 56.0928 129.136 55.3962 128.679C53.6096 127.509 51.8543 126.274 50.1302 124.974C48.444 123.712 46.7919 122.402 45.1876 121.034C43.6049 119.759 42.1275 118.359 40.7698 116.847C40.2314 116.218 39.7488 115.544 39.3274 114.831C38.8526 114.124 38.6034 113.289 38.6126 112.437C38.6145 112.101 38.6952 111.772 38.8483 111.473C39.0013 111.175 39.2223 110.917 39.4935 110.721C40.0637 110.381 40.7252 110.228 41.3865 110.281C42.228 110.334 43.0594 110.492 43.8612 110.753C44.7462 111.01 45.615 111.32 46.4628 111.681C48.2774 112.46 49.9952 113.447 51.5819 114.623C51.9351 114.885 52.286 115.156 52.6302 115.434C52.7996 115.575 52.9673 115.713 53.1339 115.856C53.2284 115.949 53.3287 116.035 53.4343 116.115C53.6181 116.237 53.5492 116.155 53.5349 115.965C53.4573 114.909 53.3824 113.851 53.335 112.778C53.2156 110.716 53.3472 108.647 53.7269 106.617C54.4603 103.037 56.4736 99.5261 59.9701 98.0689C62.0739 97.1813 64.4325 97.1077 66.5876 97.8624C68.7427 98.617 70.5402 100.146 71.6308 102.152C71.633 102.161 71.6323 102.17 71.6288 102.178C71.6253 102.187 71.6192 102.194 71.6114 102.198C71.6036 102.203 71.5946 102.204 71.5857 102.203C71.5768 102.202 71.5685 102.198 71.562 102.192V102.192Z" fill="#263238"/>
<path d="M70.6395 67.3575C71.7979 65.8299 74.4742 65.4628 75.0673 65.9498C75.4699 64.0218 73.9633 62.385 72.5462 62.0471C71.9815 61.9144 71.1115 62.1047 70.5379 62.2046C69.2766 62.4227 68.5839 62.9327 67.514 63.6349C66.4156 64.3185 65.5917 65.3656 65.1856 66.594" fill="#263238"/>
<path d="M72.2571 81.0375C73.4841 82.7367 75.5215 83.7294 77.5975 84.0135C79.6736 84.2976 81.7889 83.9315 83.801 83.3167C84.5333 83.125 85.2279 82.8108 85.8554 82.3874C86.1678 82.1727 86.4315 81.8945 86.6292 81.5711C86.8269 81.2476 86.9542 80.8861 87.0029 80.5101C88.5173 82.064 89.5843 83.9978 90.0914 86.1075C86.4458 88.4252 81.8876 89.442 77.6909 88.4151C73.4942 87.3882 68.4651 83.5719 67.2717 79.42" fill="#263238"/>
<path d="M42.0299 119.875C39.0786 121.946 35.2969 122.661 31.7155 122.229C28.134 121.798 24.7308 120.302 21.7415 118.303C18.5863 116.219 15.7001 113.445 14.4506 109.876C13.2949 106.565 13.656 102.951 13.4843 99.4494C13.2644 94.9814 12.0045 90.3138 8.75971 87.2362C5.51493 84.1587 -0.0902818 83.3174 -3.41197 86.3105C-6.12703 88.7589 -6.59925 92.8227 -6.44691 96.4745C-6.11091 104.608 -3.50193 112.725 1.45941 119.182C6.42076 125.64 13.788 130.334 21.8432 131.522C29.8985 132.711 38.5368 130.211 44.3319 124.491" fill="#F5F5F5"/>
<path d="M44.3241 124.496L44.0253 124.761L43.1611 125.546C40.198 128.06 36.7017 129.866 32.9371 130.829L32.4327 130.966L31.9113 131.079C31.5595 131.15 31.2059 131.237 30.8439 131.303C30.1132 131.417 29.3608 131.55 28.5758 131.614C26.926 131.785 25.2639 131.802 23.6109 131.666C19.8137 131.329 16.1183 130.256 12.7305 128.508C8.84667 126.506 5.39249 123.762 2.56299 120.432C1.03956 118.627 -0.298466 116.674 -1.43089 114.601C-2.03319 113.558 -2.54001 112.445 -3.04175 111.322C-3.54349 110.199 -3.967 109.027 -4.34489 107.832C-5.13591 105.399 -5.69888 102.898 -6.02653 100.361C-6.33997 97.7972 -6.56588 95.1494 -6.21853 92.5156C-6.13397 91.8605 -6.00156 91.2124 -5.82235 90.5766C-5.56604 89.6287 -5.17075 88.7239 -4.64934 87.8918C-4.47018 87.6284 -4.27515 87.3761 -4.06534 87.1363C-3.85799 86.8885 -3.63576 86.6536 -3.39989 86.4328C-3.15166 86.2271 -2.90344 86.0214 -2.6425 85.8377C-1.57419 85.1317 -0.346298 84.7041 0.929454 84.5939C2.18799 84.4862 3.45542 84.6274 4.65943 85.0094C5.84533 85.368 6.95795 85.9348 7.94524 86.6833C8.89908 87.4218 9.72825 88.3086 10.4011 89.3098C11.693 91.2866 12.5686 93.5059 12.9742 95.8323C13.1866 96.9496 13.3253 98.0795 13.3895 99.2149C13.4568 100.336 13.4578 101.444 13.4737 102.539C13.4997 104.726 13.5503 106.873 14.0792 108.876C14.5944 110.808 15.536 112.599 16.8346 114.119C18.0275 115.514 19.3947 116.75 20.9028 117.797C23.4562 119.656 26.3325 121.026 29.3855 121.836C30.6388 122.153 31.9223 122.334 33.2143 122.378C34.3009 122.407 35.3878 122.331 36.46 122.152C37.944 121.899 39.378 121.411 40.7075 120.705C41.0518 120.521 41.3862 120.32 41.7093 120.101C41.9282 119.953 42.0359 119.872 42.0359 119.872C42.0359 119.872 41.9203 119.939 41.7014 120.087C41.4824 120.236 41.1455 120.434 40.6885 120.672C39.3599 121.37 37.9286 121.852 36.4484 122.1C34.1035 122.476 31.7059 122.36 29.4081 121.76C26.3707 120.943 23.5103 119.573 20.9707 117.717C19.4729 116.674 18.1163 115.442 16.9344 114.051C15.6495 112.544 14.7195 110.768 14.2132 108.854C13.6926 106.872 13.6424 104.732 13.6196 102.55C13.608 101.456 13.613 100.352 13.5338 99.2234C13.4699 98.0814 13.3322 96.9448 13.1216 95.8207C12.7132 93.4748 11.8318 91.2366 10.5309 89.2422C9.84591 88.2174 9.00156 87.3085 8.0298 86.5501C7.02639 85.7912 5.89656 85.2159 4.69263 84.8508C3.47038 84.4672 2.18488 84.3267 0.908649 84.437C-0.395171 84.5512 -1.65005 84.9882 -2.74282 85.7084C-3.00375 85.8921 -3.26415 86.1085 -3.5163 86.3202C-3.76019 86.5448 -3.98929 86.7849 -4.20217 87.0391C-4.41554 87.2917 -4.61454 87.5561 -4.79823 87.831C-4.96331 88.1172 -5.14301 88.3971 -5.28436 88.6989C-5.57872 89.299 -5.81384 89.9264 -5.98637 90.5722C-6.16506 91.216 -6.29794 91.8716 -6.38402 92.5341C-6.54868 93.8546 -6.5997 95.1868 -6.53651 96.5161C-6.46321 97.8317 -6.37616 99.1393 -6.19063 100.427C-5.86339 102.964 -5.30229 105.466 -4.51449 107.9C-4.13343 109.101 -3.67762 110.265 -3.2034 111.404C-2.72919 112.543 -2.17907 113.642 -1.5846 114.698C-0.445824 116.778 0.899805 118.738 2.43185 120.548C5.27898 123.896 8.75664 126.652 12.6669 128.659C16.0717 130.408 19.7845 131.478 23.5981 131.809C25.2588 131.942 26.9283 131.921 28.5851 131.745C29.3701 131.681 30.1252 131.546 30.8571 131.428C31.2219 131.36 31.5782 131.272 31.9284 131.198L32.4525 131.083L32.9597 130.944C35.26 130.335 37.468 129.419 39.5242 128.222C40.8157 127.453 42.0388 126.575 43.1799 125.597L44.0334 124.8L44.3241 124.496Z" fill="#263238"/>
<path d="M-6.3427 93.786C-6.29117 93.8242 -6.23414 93.8544 -6.17358 93.8755C-6.05942 93.927 -5.89622 94.0127 -5.67744 94.0992C-5.05123 94.3451 -4.40415 94.5341 -3.74404 94.6639C-1.5524 95.0584 0.698046 94.9826 2.85812 94.4414C5.00435 93.8937 7.08832 93.1258 9.0769 92.1502C9.84559 91.7908 10.4608 91.4834 10.8836 91.2686L11.367 91.0189C11.425 90.9926 11.4803 90.9606 11.5321 90.9235C11.4703 90.9386 11.4105 90.9608 11.3538 90.9898L10.8546 91.212L9.03938 92.0471C7.04468 92.9847 4.96619 93.7325 2.83138 94.2807C0.691581 94.8144 -1.53464 94.9058 -3.71104 94.5494C-4.36772 94.432 -5.01373 94.2612 -5.64263 94.0387C-6.09671 93.8752 -6.33646 93.7714 -6.3427 93.786Z" fill="#263238"/>
</g>
<defs>
<clipPath id="clip0_514_157350">
<rect x="0.333984" width="100" height="100" rx="50" fill="white"/>
</clipPath>
</defs>
</svg>
