<svg width="101" height="100" viewBox="0 0 101 100" fill="none" xmlns="http://www.w3.org/2000/svg">
<g clip-path="url(#clip0_514_156759)">
<rect x="0.666016" width="100" height="100" rx="50" fill="#F1EAFD"/>
<path d="M66.4949 41.2212C69.7928 39.3787 74.7301 40.508 76.7434 43.777C77.9747 46.1212 78.4229 48.8198 78.0185 51.4541C77.7596 54.0891 77.1173 56.6745 77.0598 59.3194C76.9512 60.7469 77.1374 62.182 77.6062 63.5294C77.8423 64.2005 78.2068 64.8157 78.6778 65.3381C79.1489 65.8606 79.717 66.2798 80.3481 66.5706C82.3135 67.3828 84.7677 66.5706 86.5222 67.8286C86.9059 68.1434 87.2251 68.5341 87.4612 68.9777C87.6973 69.4213 87.8456 69.9091 87.8973 70.4125C87.9491 70.916 87.9033 71.425 87.7627 71.91C87.622 72.395 87.3894 72.8462 87.0782 73.2373C86.4003 73.9917 85.5024 74.4967 84.5212 74.6755C83.54 74.8544 82.5292 74.6972 81.6424 74.2279C83.4927 76.001 83.1475 79.4186 81.2781 81.162C80.2923 81.9813 79.1086 82.5066 77.8548 82.6812C76.6011 82.8558 75.325 82.673 74.1645 82.1526C71.8532 81.0728 69.8853 79.3383 68.489 77.1501C64.8892 71.7753 63.0115 65.3693 63.1203 58.834C63.1158 52.7258 64.405 46.6906 66.8975 41.1519" fill="#263238"/>
<path d="M-41.1787 99.034C-40.0762 97.1915 -32.4258 101.6 -31.7451 101.917C-31.0644 102.234 -30.6042 101.243 -31.2274 100.986C-32.119 100.619 -41.4472 96.4783 -40.3734 94.6655C-39.779 93.6749 -38.1205 94.923 -38.1205 94.923C-38.1205 94.923 -29.6743 99.46 -29.195 98.5783C-28.7156 97.6967 -33.5858 94.8537 -35.2923 94.0216C-36.9988 93.1895 -37.2864 92.0404 -36.3085 91.5649C-35.647 91.238 -30.355 93.6749 -28.6868 94.5367C-27.0187 95.3985 -22.4745 97.875 -23.7591 94.7745C-25.0438 91.6739 -24.9 88.8309 -24.3343 88.0483C-24.1888 87.8864 -23.9974 87.776 -23.7876 87.733C-23.5778 87.69 -23.3602 87.7164 -23.1658 87.8086C-22.9714 87.9008 -22.8101 88.0541 -22.7049 88.2465C-22.5997 88.4389 -22.556 88.6608 -22.5799 88.8804C-22.4957 90.0146 -22.2602 91.1314 -21.8801 92.1989C-21.6113 93.0677 -21.1994 93.8821 -20.6625 94.6061C-20.0298 95.458 -19.4641 96.1415 -18.9656 96.716C-14.0954 98.4793 -0.18464 102.937 12.8154 101.669C13.2851 101.619 13.9658 100.678 14.7328 99.1826L32.3633 105.047C31.7018 106.454 30.9828 108.019 30.2062 109.574C20.3699 129.881 -25.2259 108.811 -25.2259 108.811V108.762C-28.6435 108.086 -32.0231 107.22 -35.3498 106.166C-39.9132 104.472 -39.7694 104.046 -39.4914 103.531C-38.734 102.144 -31.352 106.206 -32.445 104.383C-33.5379 102.561 -42.032 100.451 -41.1787 99.034Z" fill="#723C2C"/>
<path d="M20.8516 107.879L-11.0732 95.0215L-30.7745 107.028L4.1318 119.905L20.8516 107.879Z" fill="#263238"/>
<path d="M26.488 136.101L27.8781 106.383L27.9836 105.135L12.7498 97.8539L17.6009 85.5804C22.9504 64.8671 42.0477 64.56 42.0477 64.56L56.6104 63.084L63.1775 64.56C63.1775 64.56 75.3435 66.7294 75.8036 84.6493C76.0238 95.5682 73.7717 106.389 69.2269 116.249L64.769 113.842C64.7823 116.759 65.6404 119.606 67.2328 122.015C69.1075 124.825 70.4389 127.984 71.1539 131.316L26.488 136.101Z" fill="#48A0E0"/>
<path d="M59.6721 80.8262C59.5954 80.8262 59.4804 82.2923 59.1448 84.6499C58.2685 90.7919 56.4599 96.7526 53.7857 102.312C52.7599 104.442 52.0408 105.72 52.108 105.759C52.342 105.508 52.5419 105.225 52.7023 104.917C53.0666 104.363 53.546 103.531 54.1021 102.481C56.9794 96.963 58.8083 90.9273 59.49 84.6994C59.6242 83.5107 59.6913 82.5399 59.7009 81.8663C59.7403 81.52 59.7306 81.1696 59.6721 80.8262Z" fill="#263238"/>
<path d="M29.9016 99.113C28.883 98.6582 27.9708 97.9825 27.2268 97.1318C26.465 96.1944 26.0505 95.0076 26.0572 93.7836C26.0494 93.0438 26.2207 92.3137 26.5556 91.6597C26.8905 91.0057 27.3783 90.4486 27.9746 90.0391C28.4242 89.7266 28.9299 89.5104 29.4618 89.4032C29.9936 89.296 30.5409 89.3 31.0712 89.415L31.3109 89.4745L31.3588 89.2268C31.8286 86.8395 32.2121 84.7791 32.4709 83.2833C32.6391 82.5107 32.7481 81.7258 32.7969 80.9355C32.5239 81.6743 32.3153 82.4368 32.1737 83.2139C31.8382 84.6602 31.3972 86.7107 30.8891 89.0881L31.1862 88.8999C30.593 88.7604 29.9784 88.7473 29.3801 88.8614C28.7817 88.9755 28.2122 89.2145 27.7062 89.5636C27.0488 90.0245 26.5145 90.6491 26.1526 91.3797C25.7906 92.1104 25.6127 92.9235 25.6354 93.744C25.6455 95.0748 26.1302 96.3551 26.9967 97.3398C27.5707 97.9869 28.274 98.4974 29.0579 98.8356C29.3166 98.9895 29.6044 99.0841 29.9016 99.113V99.113Z" fill="#263238"/>
<path d="M27.4579 111.414C27.9099 109.351 28.1699 107.248 28.2344 105.134C28.4933 101.657 28.9151 98.8735 28.7809 98.8438C28.1614 100.866 27.8098 102.965 27.7359 105.085C27.5103 107.186 27.4174 109.3 27.4579 111.414Z" fill="#263238"/>
<path d="M12.7041 97.9727C13.3627 98.4805 14.0732 98.9123 14.8228 99.2604C16.165 99.9836 18.044 100.944 20.1628 101.925C22.2815 102.906 24.2085 103.728 25.6274 104.283C26.3725 104.637 27.154 104.903 27.957 105.075C27.264 104.623 26.5284 104.245 25.7616 103.946L20.3641 101.45L14.9762 98.9335C14.2488 98.5422 13.4883 98.2206 12.7041 97.9727V97.9727Z" fill="#263238"/>
<path d="M69.4779 83.8572C69.6454 82.9441 69.6454 82.0065 69.4779 81.0934C69.4871 80.1607 69.3312 79.2341 69.0177 78.3594C68.8501 79.2758 68.8501 80.2166 69.0177 81.133C69.009 82.0625 69.1649 82.9857 69.4779 83.8572V83.8572Z" fill="#FAFAFA"/>
<path d="M68.048 89.9986C68.7927 89.9593 69.5197 89.7495 70.1763 89.3844C70.8823 89.1689 71.5358 88.8009 72.0938 88.3047C71.3461 88.3368 70.6152 88.5434 69.9558 88.909C68.8629 89.3745 67.9905 89.8599 68.048 89.9986Z" fill="#FAFAFA"/>
<path d="M62.7213 87.0667C63.0054 86.4284 63.0763 85.7106 62.9226 85.0261C62.8076 83.8869 62.4337 83.0449 62.3091 83.0449C62.2432 83.7074 62.2821 84.3765 62.4241 85.0261C62.4213 85.718 62.5215 86.4063 62.7213 87.0667V87.0667Z" fill="#FAFAFA"/>
<path d="M63.5585 97.3002C63.7106 96.5051 63.5741 95.6799 63.175 94.9822C62.6478 93.7736 61.8137 93.0802 61.7274 93.1793C61.6411 93.2783 62.2355 94.0807 62.6861 95.1605C63.1367 96.2402 63.4339 97.3101 63.5585 97.3002Z" fill="#FAFAFA"/>
<path d="M58.4994 73.6543C59.1217 74.2292 59.8484 74.6703 60.6373 74.952C61.3573 75.3838 62.1519 75.6665 62.9766 75.7841C61.6395 74.7676 60.1162 74.043 58.4994 73.6543V73.6543Z" fill="#FAFAFA"/>
<path d="M64.4455 66.7409C64.34 66.8499 65.1262 67.7315 65.989 68.9202C66.4496 69.6853 66.9896 70.3962 67.5996 71.0401C67.4134 70.1294 66.9928 69.2875 66.3821 68.6032C65.4809 67.3848 64.5222 66.6319 64.4455 66.7409Z" fill="#FAFAFA"/>
<path d="M49.0944 82.4502C49.9801 82.1425 50.7775 81.6114 51.4144 80.9049C52.1572 80.318 52.7416 79.5437 53.1113 78.6562C52.3764 79.2067 51.6956 79.8305 51.0789 80.5186C49.9859 81.5587 49.0177 82.3215 49.0944 82.4502Z" fill="#FAFAFA"/>
<path d="M39.9377 72.9899C40.3636 73.8746 40.8915 74.7028 41.51 75.4565C41.9776 76.2952 42.5444 77.0705 43.1973 77.7646C42.9658 76.8067 42.5265 75.9158 41.9126 75.1593C40.9827 73.7824 40.0336 72.8909 39.9377 72.9899Z" fill="#FAFAFA"/>
<path d="M45.7615 90.7712C47.313 91.1147 48.9173 91.1147 50.4688 90.7712C48.9173 90.4278 47.313 90.4278 45.7615 90.7712V90.7712Z" fill="#FAFAFA"/>
<path d="M37.1023 87.3438C37.5664 86.5422 37.8054 85.623 37.7926 84.689C37.9405 83.7692 37.8342 82.825 37.4858 81.9648C37.3381 82.8512 37.2739 83.7502 37.2941 84.6494C37.1427 85.5386 37.0784 86.4413 37.1023 87.3438V87.3438Z" fill="#FAFAFA"/>
<path d="M34.8588 98.9546C35.7353 98.7527 36.5698 98.3904 37.3227 97.8848C38.1468 97.5229 38.9004 97.0094 39.5469 96.3691C38.6694 96.5627 37.8341 96.922 37.083 97.4291C36.2551 97.788 35.5004 98.3056 34.8588 98.9546Z" fill="#FAFAFA"/>
<path d="M28.6819 93.0584C28.6148 93.1872 29.1709 93.623 29.9187 94.049C30.6665 94.475 31.3376 94.7127 31.4047 94.5839C31.4718 94.4551 30.9157 94.0193 30.1584 93.5933C29.401 93.1674 28.7395 92.9296 28.6819 93.0584Z" fill="#FAFAFA"/>
<path d="M48.1265 103.945C48.1551 102.914 47.9308 101.891 47.4746 100.973C47.1662 99.9973 46.6139 99.1225 45.8735 98.4375C46.1841 99.3783 46.5655 100.292 47.0144 101.172C47.307 102.128 47.6791 103.056 48.1265 103.945Z" fill="#FAFAFA"/>
<path d="M20.3645 96.6855C21.7246 97.5553 23.2469 98.119 24.832 98.3399C24.1942 97.8359 23.4634 97.4718 22.6845 97.27C21.9569 96.9166 21.1679 96.7178 20.3645 96.6855V96.6855Z" fill="#FAFAFA"/>
<path d="M20.8514 90.3163C21.017 89.4462 20.9371 88.5454 20.6213 87.7209C20.4676 86.8342 20.0641 86.0141 19.4613 85.3633C19.6204 86.2007 19.858 87.0202 20.1707 87.8101C20.3129 88.6676 20.541 89.5075 20.8514 90.3163V90.3163Z" fill="#FAFAFA"/>
<path d="M23.8329 84.8864C24.6799 85.1314 25.5658 85.1989 26.4384 85.0849C27.311 84.9709 28.1527 84.6777 28.9141 84.2227C28.0594 84.2655 27.2096 84.3814 26.3735 84.5694C25.5193 84.5977 24.6691 84.7038 23.8329 84.8864V84.8864Z" fill="#FAFAFA"/>
<path d="M27.3047 78.4973C27.0983 77.689 26.6606 76.964 26.0488 76.4171C25.1476 75.4265 24.1889 74.8816 24.1314 75.0005C24.0739 75.1194 24.8312 75.8128 25.6941 76.7737C26.5569 77.7346 27.1321 78.5766 27.3047 78.4973Z" fill="#FAFAFA"/>
<path d="M33.7847 73.7624C34.4474 72.326 34.7975 70.7571 34.8105 69.166C34.1479 70.6024 33.7978 72.1712 33.7847 73.7624V73.7624Z" fill="#FAFAFA"/>
<path d="M41.5134 64.0457C41.5805 60.9253 41.6188 58.1021 41.6188 58.1021C41.6188 58.1021 35.7036 57.4583 35.3489 51.4057C34.9942 45.3532 35.3489 31.3759 35.3489 31.3759L46.1151 25.9375L57.9551 35.2095L57.2648 64.3825C57.2099 66.5024 56.3568 68.5165 54.8868 69.9965C53.4169 71.4764 51.4462 72.3055 49.3939 72.3073C48.3492 72.3074 47.315 72.0929 46.3513 71.6763C45.3876 71.2597 44.5137 70.6492 43.7804 69.8805C43.0471 69.1117 42.4691 68.2 42.0799 67.1983C41.6907 66.1966 41.4981 65.125 41.5134 64.0457Z" fill="#BF8674"/>
<path d="M57.1678 39.9143C57.1678 39.9143 47.4945 38.9237 45.788 29.9092L35.2423 39.9143C34.3632 37.7346 34.1437 35.3309 34.6126 33.0198C35.0815 30.7087 36.2168 28.5985 37.8691 26.9672C43.6884 20.7264 47.6766 22.0142 49.9583 22.0142C52.077 22.0142 62.8241 24.3718 66.0262 37.0019C66.2562 37.9232 66.448 40.1916 66.5918 41.2218L57.1678 39.9143Z" fill="#263238"/>
<path d="M36.6314 41.5989C36.6314 41.7517 36.6752 41.901 36.7574 42.0281C36.8396 42.1552 36.9564 42.2542 37.093 42.3127C37.2296 42.3712 37.38 42.3865 37.525 42.3567C37.6701 42.3268 37.8034 42.2533 37.9079 42.1452C38.0125 42.0371 38.0837 41.8995 38.1126 41.7496C38.1414 41.5997 38.1266 41.4443 38.07 41.3031C38.0134 41.162 37.9176 41.0413 37.7946 40.9564C37.6716 40.8715 37.5271 40.8262 37.3792 40.8262C37.1808 40.8262 36.9906 40.9076 36.8504 41.0525C36.7102 41.1974 36.6314 41.3939 36.6314 41.5989V41.5989Z" fill="#263238"/>
<path d="M35.9027 40.7865C35.9986 40.8856 36.5546 40.4002 37.3599 40.3506C38.1652 40.3011 38.7788 40.7072 38.8555 40.5983C38.9322 40.4893 38.798 40.3605 38.5391 40.1723C38.1802 39.9338 37.7572 39.8194 37.3312 39.8454C36.9052 39.8716 36.4986 40.0383 36.1711 40.3209C35.9314 40.5091 35.8547 40.7073 35.9027 40.7865Z" fill="#263238"/>
<path d="M45.3462 41.5989C45.3462 41.7517 45.3901 41.901 45.4722 42.0281C45.5544 42.1552 45.6712 42.2542 45.8078 42.3127C45.9445 42.3712 46.0948 42.3865 46.2399 42.3567C46.385 42.3268 46.5182 42.2533 46.6228 42.1452C46.7274 42.0371 46.7986 41.8995 46.8274 41.7496C46.8563 41.5997 46.8415 41.4443 46.7849 41.3031C46.7283 41.162 46.6324 41.0413 46.5095 40.9564C46.3865 40.8715 46.2419 40.8262 46.094 40.8262C45.8957 40.8262 45.7055 40.9076 45.5652 41.0525C45.425 41.1974 45.3462 41.3939 45.3462 41.5989V41.5989Z" fill="#263238"/>
<path d="M44.8572 40.7865C44.9531 40.8856 45.5091 40.4002 46.3144 40.3507C47.1197 40.3011 47.7333 40.7073 47.8196 40.5983C47.9059 40.4893 47.7525 40.3606 47.4936 40.1724C47.1351 39.9334 46.712 39.8189 46.2861 39.8456C45.8601 39.8723 45.4536 40.0389 45.1257 40.3209C44.886 40.5091 44.8093 40.7073 44.8572 40.7865Z" fill="#263238"/>
<path d="M41.9423 47.8004C41.5091 47.6915 41.0651 47.635 40.6193 47.632C40.418 47.632 40.2167 47.632 40.1687 47.4339C40.144 47.2026 40.184 46.9689 40.2838 46.7603L40.8398 45.0267C41.2233 43.7984 41.5492 42.679 41.7985 41.8667C41.9464 41.4307 42.0461 40.9787 42.0957 40.5195C41.8492 40.9111 41.6526 41.334 41.5109 41.7776C41.2329 42.58 40.8686 43.6894 40.4851 44.9178C40.2933 45.522 40.1208 46.1065 39.9482 46.6513C39.8302 46.9252 39.8032 47.2317 39.8715 47.5231C39.8999 47.5998 39.9463 47.668 40.0065 47.7217C40.0668 47.7753 40.139 47.8125 40.2166 47.8301C40.3313 47.8433 40.4471 47.8433 40.5618 47.8301C41.0212 47.883 41.4854 47.873 41.9423 47.8004V47.8004Z" fill="#263238"/>
<path d="M44.6089 48.5918C43.3386 49.1405 42.0352 49.6037 40.707 49.9786C41.0003 50.4039 41.4246 50.7138 41.9104 50.8578C42.3962 51.0017 42.9149 50.9712 43.3818 50.7711C45.1075 50.0183 44.6089 48.5918 44.6089 48.5918Z" fill="#FAFAFA"/>
<path d="M41.6251 58.1418C44.4103 58.0243 47.1048 57.0859 49.3906 55.4375C49.3906 55.4375 47.4732 59.8952 41.6251 59.6475V58.1418Z" fill="#723C2C"/>
<path d="M46.0762 29.1856C46.0762 29.1856 43.9287 33.4749 44.849 36.7042L35.4442 39.2104C35.4442 39.2104 33.3063 26.9171 46.0762 29.1856Z" fill="#263238"/>
<path d="M66.6405 41.2218C66.6405 41.2218 68.299 54.2283 56.8904 56.7444L57.1685 39.9043L66.6405 41.2218Z" fill="#263238"/>
<path d="M45.2402 25.2248C44.2678 25.1259 43.2862 25.2476 42.3641 25.5814C40.0587 26.2441 37.9755 27.5524 36.3445 29.3617C34.7136 31.171 33.5984 33.4109 33.1222 35.834C32.8699 36.8029 32.8241 37.8169 32.988 38.8058C33.103 38.8058 33.1126 37.6567 33.5728 35.9034C34.1431 33.6157 35.2573 31.5114 36.8143 29.7815C38.3713 28.0516 40.3218 26.7509 42.4887 25.9974C44.1473 25.4328 45.2498 25.3337 45.2402 25.2248Z" fill="#263238"/>
<path d="M42.4686 41.2212C42.4686 41.2212 42.4686 40.7952 42.6795 40.0721C42.9504 39.0576 43.5408 38.1654 44.3572 37.5362C45.0174 37.0288 45.8012 36.721 46.6209 36.6471C47.4406 36.5733 48.2641 36.7363 48.9993 37.1181C49.7346 37.4998 50.3526 38.0852 50.7845 38.8089C51.2164 39.5326 51.4451 40.366 51.4451 41.2162C51.4451 42.0665 51.2164 42.8999 50.7845 43.6236C50.3526 44.3473 49.7346 44.9327 48.9993 45.3144C48.2641 45.6962 47.4406 45.8592 46.6209 45.7854C45.8012 45.7116 45.0174 45.4037 44.3572 44.8963C43.5408 44.2671 42.9504 43.3748 42.6795 42.3604C42.4877 41.6372 42.5069 41.2113 42.4686 41.2212C42.458 41.32 42.458 41.4196 42.4686 41.5184C42.4662 41.8119 42.4984 42.1046 42.5644 42.3901C42.766 43.2944 43.2177 44.1185 43.8645 44.7623C44.5114 45.406 45.3254 45.8415 46.2075 46.0157C47.0835 46.1882 47.9888 46.1022 48.8196 45.7676C49.6505 45.433 50.3733 44.8632 50.9051 44.1236C51.5084 43.2824 51.834 42.2632 51.834 41.2162C51.834 40.1693 51.5084 39.1501 50.9051 38.3089C50.3733 37.5693 49.6505 36.9995 48.8196 36.6649C47.9888 36.3303 47.0835 36.2443 46.2075 36.4168C45.4843 36.5614 44.8043 36.8805 44.223 37.348C43.3849 38.0206 42.7987 38.9729 42.5644 40.0424C42.4988 40.328 42.4666 40.6206 42.4686 40.9141C42.4583 41.0162 42.4583 41.1191 42.4686 41.2212V41.2212Z" fill="#263238"/>
<path d="M31.8547 41.2231C31.8547 41.2231 31.8547 40.7971 32.0561 40.074C32.327 39.0595 32.9174 38.1673 33.7338 37.5381C34.2087 37.1736 34.7487 36.91 35.3228 36.7624C35.8968 36.6149 36.4935 36.5864 37.0782 36.6785C37.663 36.7706 38.2243 36.9815 38.7298 37.2991C39.2352 37.6167 39.6747 38.0346 40.0229 38.5287C40.5483 39.2717 40.8457 40.1605 40.8767 41.0801C40.9077 41.9998 40.6709 42.9078 40.1969 43.6868C39.7228 44.4658 39.0334 45.0799 38.2179 45.4495C37.4023 45.8191 36.4982 45.9273 35.6224 45.76C34.9279 45.6398 34.2708 45.3512 33.705 44.918C32.8886 44.2888 32.2983 43.3966 32.0273 42.3821C31.8452 41.659 31.8643 41.233 31.826 41.2429C31.8115 41.3414 31.8115 41.4416 31.826 41.5401C31.8236 41.8336 31.8558 42.1263 31.9219 42.4118C32.1338 43.3079 32.5884 44.1231 33.2326 44.7618C33.8767 45.4005 34.6836 45.8364 35.5589 46.0183C36.4341 46.2002 37.3414 46.1206 38.1744 45.7889C39.0075 45.4572 39.7318 44.8871 40.2626 44.1454C40.8658 43.3042 41.1914 42.2849 41.1914 41.238C41.1914 40.191 40.8658 39.1718 40.2626 38.3306C39.7105 37.5441 38.9372 36.9526 38.048 36.6366C37.2533 36.3375 36.3946 36.269 35.5649 36.4385C34.8452 36.585 34.1687 36.9039 33.59 37.3697C32.7495 38.0418 32.1601 38.9939 31.9219 40.0641C31.8562 40.3497 31.824 40.6423 31.826 40.9358C31.8231 41.0325 31.8327 41.1291 31.8547 41.2231Z" fill="#263238"/>
<path d="M41.0431 41.3715C41.0431 41.4607 41.4266 41.5399 41.8868 41.5399C42.347 41.5399 42.7305 41.4607 42.7305 41.3715C42.7305 41.2824 42.347 41.2031 41.8868 41.2031C41.4266 41.2031 41.0431 41.2725 41.0431 41.3715Z" fill="#263238"/>
<path d="M51.4719 42.2129C52.7936 42.651 54.1463 42.9822 55.5177 43.2035C56.8628 43.5378 58.2318 43.7597 59.6113 43.8672C58.2931 43.4283 56.9436 43.0971 55.5752 42.8766C54.2259 42.547 52.8541 42.3251 51.4719 42.2129V42.2129Z" fill="#263238"/>
<path d="M57.8073 49.3442C58.2868 49.6473 58.8527 49.7704 59.4097 49.6928C59.9667 49.6152 60.4809 49.3417 60.8656 48.9182C61.2351 48.477 61.4989 47.952 61.6355 47.3858C61.772 46.8195 61.7776 46.228 61.6517 45.6592C61.562 44.9609 61.2194 44.3237 60.693 43.8761C60.2757 43.6778 59.8174 43.5894 59.3591 43.6188C58.9007 43.6482 58.4565 43.7944 58.0662 44.0445L57.8073 49.3442Z" fill="#BF8674"/>
<path d="M59.1257 48.3639C59.1257 48.2846 59.4229 48.2351 59.768 47.9775C59.9861 47.8159 60.1599 47.5986 60.2724 47.3469C60.385 47.0951 60.4325 46.8175 60.4104 46.5412C60.387 46.2637 60.2919 45.9978 60.1351 45.7713C59.9782 45.5448 59.7654 45.3659 59.5188 45.2534C59.1353 45.0553 58.8285 45.0652 58.8285 44.986C58.8285 44.9067 59.1257 44.768 59.6434 44.9067C59.9832 45.0105 60.2852 45.2172 60.5103 45.5C60.7354 45.7828 60.8733 46.1288 60.9063 46.4933C60.9394 46.8579 60.8659 47.2244 60.6955 47.5454C60.5251 47.8664 60.2655 48.1274 59.9502 48.2945C59.4613 48.5224 59.1257 48.4332 59.1257 48.3639Z" fill="#723C2C"/>
<path d="M41.6086 64.4907C41.555 64.8186 41.555 65.1534 41.6086 65.4813C41.7374 66.4273 42.0091 67.3466 42.4139 68.2055C43.0057 69.4943 43.8945 70.6134 45.0024 71.4645C46.384 72.5181 48.0827 73.0306 49.7959 72.9108C51.5022 72.8187 53.125 72.1186 54.3881 70.9296C55.4 69.9561 56.1724 68.7471 56.641 67.4031C56.9605 66.5097 57.1448 65.5709 57.1875 64.6195C57.2156 64.2877 57.193 63.9534 57.1204 63.6289C57.0017 64.8881 56.7278 66.1264 56.3055 67.3139C55.8154 68.5762 55.055 69.7074 54.0813 70.6225C52.8857 71.7312 51.3613 72.3878 49.7576 72.4848C48.1582 72.5931 46.5712 72.1316 45.2613 71.1772C44.1988 70.3755 43.3294 69.3314 42.7207 68.1262C42.1877 66.9739 41.8134 65.7502 41.6086 64.4907Z" fill="#263238"/>
</g>
<defs>
<clipPath id="clip0_514_156759">
<rect x="0.666016" width="100" height="100" rx="50" fill="white"/>
</clipPath>
</defs>
</svg>
