<svg xmlns="http://www.w3.org/2000/svg" width="267" height="94.567" viewBox="103 -3 267 92"><path fill="#b83b5e" d="M132.348 33.19v9.015h-16.496c-2.264.192-3.99 2.148-3.99 4.45s1.726 4.182 3.99 4.45h10.512v2.993h-10.512c-3.875-.307-6.944-3.492-6.944-7.481 0-3.837 2.954-7.098 6.79-7.405h13.658v-3.03h-13.504v.038c-5.486.307-9.86 4.834-9.86 10.435 0 5.563 4.374 10.128 9.86 10.435h13.504v-5.985h2.992v8.977h-16.496C108.678 59.775 103 53.867 103 46.655c0-7.25 5.678-13.12 12.852-13.427zm17.61-1.19c8.056 0 14.616 6.56 14.616 14.655s-6.56 14.617-14.617 14.617c-8.094 0-14.655-6.522-14.655-14.617S141.862 32 149.957 32m0 26.318c6.444 0 11.662-5.218 11.662-11.663s-5.218-11.701-11.663-11.701c-6.483 0-11.7 5.256-11.7 11.701s5.217 11.663 11.7 11.663m0-20.41c4.795 0 8.708 3.951 8.708 8.747s-3.913 8.709-8.709 8.709-8.747-3.914-8.747-8.709 3.952-8.747 8.747-8.747m0 14.502a5.747 5.747 0 0 0 5.754-5.755c0-3.223-2.57-5.793-5.755-5.793a5.763 5.763 0 0 0-5.793 5.793c0 3.184 2.57 5.755 5.793 5.755m18.376-19.22h16.496c7.174.306 12.852 6.214 12.852 13.427 0 7.25-5.678 13.158-12.852 13.465H168.33V39.174h16.496c3.875.307 6.944 3.491 6.944 7.481 0 3.836-2.954 7.136-6.79 7.443h-10.666V44.66h2.993v6.445l7.519-.038c2.263-.192 3.99-2.149 3.99-4.412 0-1.957-1.228-3.568-2.954-4.22-.652-.269-1.036-.269-2.072-.269h-12.468V57.09h13.504c5.486-.307 9.86-4.834 9.86-10.473 0-5.563-4.374-10.128-9.86-10.435H168.33zm62.532 0v8.976h-20.37v2.993h15.115v2.992h-18.108v-8.977h20.371v-2.992h-23.363V57.09h23.363v-2.992h-20.371v-2.993h23.363v8.977h-29.348V33.19zm34.873 26.892h-10.358l-3.491-6.023h-6.714v6.023h-8.939V45.12l21.945.039a4.494 4.494 0 0 0 4.488-4.489 4.47 4.47 0 0 0-4.488-4.488H239.23v2.992h18.952c.805.038 1.419.69 1.419 1.496s-.614 1.458-1.42 1.496h-21.944V33.19h21.945a7.466 7.466 0 0 1 7.48 7.481c0 4.105-3.337 7.481-7.48 7.481l-18.952-.038v8.977h2.992v-6.023h11.394c1.228 2.225 3.3 5.64 3.491 6.023h3.453c-.307-.422-2.072-3.568-3.491-6.023h3.453c1.266 2.187 2.532 4.45 3.568 6.138zm25.742-17.916V33.19h8.977v26.893h-8.977v-8.938h-17.379v5.946h2.993v-2.992h2.992v5.984h-8.977v-11.97h23.402v8.978h2.954V36.182h-2.954v8.977h-17.417v-8.977h-2.993v8.977h-2.992v-11.97h8.977v8.977zm43.466-8.977v12.353c0 7.98-6.521 14.54-14.578 14.54-7.903 0-14.233-6.215-14.54-14.04V33.188h8.786v12.353c0 3.185 2.57 5.755 5.754 5.755s5.64-2.494 5.755-5.601V33.189h2.915v12.353c0 4.758-3.874 8.67-8.67 8.67-4.719 0-8.632-3.836-8.632-8.593h-.038v-9.476h-2.877v9.591c.115 6.292 5.256 11.356 11.547 11.356 6.407 0 11.548-5.18 11.548-11.548V33.19zm31.727 13.466c1.842 1.343 2.993 3.491 2.993 5.946a7.466 7.466 0 0 1-7.481 7.481h-21.868V45.12h8.94v5.985h12.928c.805.039 1.42.69 1.42 1.496s-.615 1.458-1.42 1.497h-15.883v-5.985h-2.992v8.977h18.913c2.455 0 4.45-1.995 4.45-4.489 0-2.34-1.88-4.335-4.22-4.45h-10.2V45.16h10.09c2.416-.115 4.334-2.034 4.334-4.489 0-2.493-1.995-4.488-4.45-4.488h-18.913v2.992h18.875c.805.038 1.42.69 1.42 1.496s-.615 1.458-1.42 1.496h-21.868V33.19h21.868a7.466 7.466 0 0 1 7.48 7.481 7.41 7.41 0 0 1-2.992 5.985"/></svg>