<svg xmlns="http://www.w3.org/2000/svg" width="83" height="94.567" viewBox="-4 -3 83 92"><g  fill="#b83b5e"><path d="M24.128 33.221a5.884 5.884 0 0 0-5.88 5.785 141 141 0 0 1-4.494 2.31c-1.291.64-1.627 1.438-1.658 2.782-.158 6.52-.41 13.04-.63 19.56-.042 1.334-.084 2.668-.147 4.484-1.386-.788-2.29-1.418-3.276-1.848-2.71-1.176-3.623-3.055-3.339-6.058.44-4.578.388-9.198.556-14.227-1.438.725-2.446 1.365-3.538 1.754-2.194.777-2.835 2.236-2.793 4.514.063 4.032-.094 8.074-.399 12.085-.168 2.226.315 3.654 2.436 4.735 2.657 1.365 5.113 3.13 7.665 4.704 2.656 1.648 5.323 3.286 8.368 5.166.052-1.439.084-2.363.105-3.276.283-8.316.745-16.642.745-24.957 0-3.14.672-5.302 3.286-6.583.882.525 1.911.83 3.003.83 3.245 0 5.88-2.636 5.88-5.88s-2.646-5.88-5.89-5.88m0 9.134h-.042a3.247 3.247 0 0 1-3.203-3.254c0-.662.2-1.27.536-1.785a3.26 3.26 0 0 1 2.72-1.47h.01c.304 0 .588.042.871.115a3.27 3.27 0 0 1 2.373 3.14 3.273 3.273 0 0 1-3.265 3.254"/><path d="M33.682 22.512a5.84 5.84 0 0 0-3.14.913 201 201 0 0 1-3.306-2.184c-1.187-.808-2.058-.714-3.245-.084-5.753 3.066-11.56 6.037-17.355 9.04-1.187.62-2.363 1.229-3.98 2.069.011-1.596.116-2.688.011-3.76-.304-2.928.882-4.66 3.643-5.879 4.2-1.858 8.2-4.168 12.673-6.488-1.333-.903-2.383-1.46-3.265-2.226-1.754-1.533-3.339-1.376-5.302-.22-3.476 2.036-7.077 3.874-10.73 5.574-2.017.945-3.035 2.069-2.94 4.442.115 2.992-.221 5.984-.347 8.987-.137 3.129-.252 6.258-.399 9.827 1.27-.661 2.09-1.081 2.908-1.511C6.29 37.179 13.775 33.505 21.02 29.42c2.52-1.417 4.588-1.932 6.772-.724.147 3.108 2.73 5.596 5.87 5.596 3.243 0 5.879-2.635 5.879-5.88s-2.615-5.9-5.859-5.9m3.244 6.173a3.255 3.255 0 0 1-5.501 2.048 3.23 3.23 0 0 1-.998-2.342 3.265 3.265 0 0 1 2.846-3.233 3 3 0 0 1 .41-.032c1.438 0 2.666.945 3.096 2.247.105.315.158.661.158 1.008 0 .105 0 .21-.01.304m19.329 48.182c-7.119-4.326-14.132-8.81-21.387-12.883-2.72-1.533-4.274-3.16-4.127-6.026a5.88 5.88 0 0 0 3.34-5.303c0-3.244-2.636-5.88-5.88-5.88s-5.88 2.636-5.88 5.88a5.86 5.86 0 0 0 2.54 4.83 179 179 0 0 1-.188 5.439c-.074 1.438.451 2.131 1.606 2.814 5.607 3.328 11.16 6.75 16.736 10.131 1.134.693 2.278 1.386 3.832 2.331-1.365.82-2.362 1.292-3.212 1.943-2.352 1.785-4.442 1.659-6.92-.063-3.769-2.625-7.822-4.84-12.126-7.455-.074 1.607-.01 2.803-.21 3.948-.4 2.289.556 3.56 2.562 4.651 3.538 1.921 6.982 4.042 10.341 6.279 1.859 1.239 3.34 1.512 5.324.2 2.498-1.65 5.239-2.92 7.864-4.369 2.74-1.511 5.48-3.023 8.61-4.756-1.25-.756-2.038-1.239-2.825-1.711M28.202 55.91a3.263 3.263 0 0 1-3.255-3.14v-.115c0-.073 0-.136.01-.21v-.02a3.3 3.3 0 0 1 .725-1.828 3.23 3.23 0 0 1 2.52-1.196 3.26 3.26 0 0 1 3.254 3.254 3.263 3.263 0 0 1-3.255 3.255"/><path d="M79.333 41.705c-1.25.703-2.058 1.154-2.855 1.606-7.256 4.084-14.605 8-21.713 12.326-2.583 1.575-4.714 2.142-7.066.777a5.883 5.883 0 0 0-5.848-6.489 5.883 5.883 0 0 0-5.88 5.88 5.883 5.883 0 0 0 8.242 5.386c1.585.945 3.118 1.87 4.63 2.825 1.218.766 2.08.65 3.245-.021 5.648-3.255 11.35-6.426 17.04-9.618 1.165-.65 2.32-1.312 3.906-2.194.042 1.596-.032 2.688.115 3.759.4 2.918-.724 4.682-3.444 6.005-4.136 2.006-8.053 4.442-12.441 6.92 1.365.85 2.436 1.385 3.338 2.12 1.806 1.47 3.381 1.26 5.303.042 3.401-2.152 6.94-4.116 10.541-5.932 1.984-1.008 2.96-2.173 2.782-4.536-.21-2.981.021-5.995.042-8.998.021-3.16.032-6.289.063-9.858M41.851 59.06a3.27 3.27 0 0 1-3.045-2.1 3.258 3.258 0 0 1 3.045-4.41c1.438 0 2.666.945 3.097 2.237.105.315.157.661.157 1.018a3.264 3.264 0 0 1-3.254 3.255"/><path d="M76.089 32.045c-.2-4.021-.178-8.063-.01-12.095.094-2.226-.441-3.643-2.594-4.651-2.709-1.27-5.218-2.95-7.822-4.452-2.709-1.564-5.438-3.108-8.536-4.882V9.25c0 8.326-.189 16.652.095 24.967.105 2.94-.42 5.04-2.594 6.416a5.9 5.9 0 0 0-2.929-.788 5.883 5.883 0 0 0-5.88 5.88 5.883 5.883 0 0 0 5.88 5.88c3.244 0 5.88-2.636 5.88-5.87a130 130 0 0 1 4.042-2.247c1.27-.682 1.585-1.49 1.564-2.834-.063-6.52-.031-13.04-.031-19.56V16.61c1.407.746 2.33 1.344 3.328 1.732 2.74 1.082 3.727 2.93 3.538 5.943-.283 4.588-.073 9.198-.073 14.237 1.407-.766 2.394-1.449 3.486-1.869 2.184-.86 2.772-2.341 2.656-4.609m-21.713 15.55a3.25 3.25 0 0 1-2.341 1.365c-.105.01-.21.01-.315.01a3.257 3.257 0 0 1-.157-6.51h.157a3.26 3.26 0 0 1 3.255 3.255 3.2 3.2 0 0 1-.599 1.88"/><path d="M51.038 27.75c.094-1.564.2-3.096.325-4.619.126-1.428-.378-2.142-1.512-2.866-5.491-3.517-10.93-7.119-16.39-10.688-1.112-.735-2.236-1.46-3.748-2.457 1.397-.777 2.405-1.218 3.276-1.838 2.415-1.7 4.494-1.512 6.92.294 3.685 2.751 7.653 5.103 11.864 7.864.126-1.606.105-2.793.346-3.937.472-2.278-.441-3.58-2.404-4.725-3.476-2.037-6.846-4.273-10.122-6.614-1.806-1.302-3.286-1.628-5.312-.378-2.552 1.564-5.334 2.75-8 4.105-2.794 1.417-5.576 2.845-8.757 4.462 1.197.788 1.974 1.292 2.75 1.796 6.962 4.556 13.828 9.281 20.947 13.596 2.53 1.544 4.01 3.14 3.947 5.743a5.88 5.88 0 0 0-3.17 5.219c0 3.244 2.635 5.88 5.88 5.88s5.879-2.636 5.879-5.88a5.98 5.98 0 0 0-2.72-4.956m-.347 6.552a3.3 3.3 0 0 1-.913 1.019 3.2 3.2 0 0 1-1.922.63 3.258 3.258 0 0 1-2.835-4.861 3.25 3.25 0 0 1 2.835-1.649c1.334 0 2.478.798 2.982 1.953.179.4.273.84.273 1.302 0 .588-.157 1.134-.42 1.606"/></g></svg>